<?xml version="1.0" encoding="utf-8" standalone="no"?>
<!DOCTYPE svg PUBLIC "-//W3C//DTD SVG 1.1//EN"
  "http://www.w3.org/Graphics/SVG/1.1/DTD/svg11.dtd">
<svg xmlns:xlink="http://www.w3.org/1999/xlink" width="728.39952pt" height="368.39952pt" viewBox="0 0 728.39952 368.39952" xmlns="http://www.w3.org/2000/svg" version="1.1">
 <metadata>
  <rdf:RDF xmlns:dc="http://purl.org/dc/elements/1.1/" xmlns:cc="http://creativecommons.org/ns#" xmlns:rdf="http://www.w3.org/1999/02/22-rdf-syntax-ns#">
   <cc:Work>
    <dc:type rdf:resource="http://purl.org/dc/dcmitype/StillImage"/>
    <dc:date>2026-02-23T11:16:38.079627</dc:date>
    <dc:format>image/svg+xml</dc:format>
    <dc:creator>
     <cc:Agent>
      <dc:title>Matplotlib v3.10.8, https://matplotlib.org/</dc:title>
     </cc:Agent>
    </dc:creator>
   </cc:Work>
  </rdf:RDF>
 </metadata>
 <defs>
  <style type="text/css">*{stroke-linejoin: round; stroke-linecap: butt}</style>
 </defs>
 <g id="figure_1">
  <g id="patch_1">
   <path d="M 0 368.39952 
L 728.39952 368.39952 
L 728.39952 0 
L 0 0 
z
" style="fill: #ffffff"/>
  </g>
  <g id="axes_1">
   <g id="patch_2">
    <path d="M 56.50625 330.565145 
L 360.59976 330.565145 
L 360.59976 24.81423 
L 56.50625 24.81423 
z
" style="fill: #ffffff"/>
   </g>
   <g id="FillBetweenPolyCollection_1">
    <defs>
     <path id="m6eea0ddf24" d="M 93.573613 -52.828347 
L 93.573613 -51.732144 
L 93.850339 -51.732144 
L 94.127064 -51.732144 
L 94.40379 -51.732144 
L 94.680515 -51.732144 
L 94.95724 -51.732144 
L 95.233966 -51.732144 
L 95.510691 -51.732144 
L 95.787416 -51.732144 
L 96.064142 -51.732144 
L 96.340867 -51.732144 
L 96.617593 -51.732144 
L 96.894318 -51.732144 
L 97.171043 -51.732144 
L 97.447769 -51.732144 
L 97.724494 -51.732144 
L 98.001219 -51.732144 
L 98.277945 -51.732144 
L 98.55467 -51.732144 
L 98.831395 -51.732144 
L 99.108121 -51.732144 
L 99.384846 -51.732144 
L 99.661572 -51.732144 
L 99.938297 -51.732144 
L 100.215022 -51.732144 
L 100.491748 -51.732144 
L 100.768473 -51.732144 
L 101.045198 -51.732144 
L 101.321924 -51.732144 
L 101.598649 -51.732144 
L 101.875375 -51.732144 
L 102.1521 -51.732144 
L 102.428825 -51.732144 
L 102.705551 -51.732144 
L 102.982276 -51.732144 
L 103.259001 -51.732144 
L 103.535727 -51.732144 
L 103.812452 -51.732144 
L 104.089178 -51.732144 
L 104.365903 -51.732144 
L 104.642628 -51.732144 
L 104.919354 -51.732144 
L 105.196079 -51.732144 
L 105.472804 -51.732144 
L 105.74953 -51.732144 
L 106.026255 -51.732144 
L 106.30298 -51.732144 
L 106.579706 -51.732144 
L 106.856431 -51.732144 
L 107.133157 -51.732144 
L 107.409882 -51.732144 
L 107.686607 -51.732144 
L 107.963333 -51.732144 
L 108.240058 -51.732144 
L 108.516783 -51.732144 
L 108.793509 -51.732144 
L 109.070234 -51.732144 
L 109.34696 -51.732144 
L 109.623685 -51.732144 
L 109.90041 -51.732144 
L 110.177136 -51.732144 
L 110.453861 -51.732144 
L 110.730586 -51.732144 
L 111.007312 -51.732144 
L 111.284037 -51.732144 
L 111.560763 -51.732144 
L 111.837488 -51.732144 
L 112.114213 -51.732144 
L 112.390939 -51.732144 
L 112.667664 -51.732144 
L 112.944389 -51.732144 
L 113.221115 -51.732144 
L 113.49784 -51.732144 
L 113.774565 -51.732144 
L 114.051291 -51.732144 
L 114.328016 -51.732144 
L 114.604742 -51.732144 
L 114.881467 -51.732144 
L 115.158192 -51.732144 
L 115.434918 -51.732144 
L 115.711643 -51.732144 
L 115.988368 -51.732144 
L 116.265094 -51.732144 
L 116.541819 -51.732144 
L 116.818545 -51.732144 
L 117.09527 -51.732144 
L 117.371995 -51.732144 
L 117.648721 -51.732144 
L 117.925446 -51.732144 
L 118.202171 -51.732144 
L 118.478897 -51.732144 
L 118.755622 -51.732144 
L 119.032348 -51.732144 
L 119.309073 -51.732144 
L 119.585798 -51.732144 
L 119.862524 -51.732144 
L 120.139249 -51.732144 
L 120.415974 -51.732144 
L 120.6927 -51.732144 
L 120.969425 -51.732144 
L 121.246151 -51.732144 
L 121.522876 -51.732144 
L 121.799601 -51.732144 
L 122.076327 -51.732144 
L 122.353052 -51.732144 
L 122.629777 -51.732144 
L 122.906503 -51.732144 
L 123.183228 -51.732144 
L 123.459953 -51.732144 
L 123.736679 -51.732144 
L 124.013404 -51.732144 
L 124.29013 -51.732144 
L 124.566855 -51.732144 
L 124.84358 -51.732144 
L 125.120306 -51.732144 
L 125.397031 -51.732144 
L 125.673756 -51.732144 
L 125.950482 -51.732144 
L 126.227207 -51.732144 
L 126.503933 -51.732144 
L 126.780658 -51.732144 
L 127.057383 -51.732144 
L 127.334109 -51.732144 
L 127.610834 -51.732144 
L 127.887559 -51.732144 
L 128.164285 -51.732144 
L 128.44101 -51.732144 
L 128.717736 -51.732144 
L 128.994461 -51.732144 
L 129.271186 -51.732144 
L 129.547912 -51.732144 
L 129.824637 -51.732144 
L 130.101362 -51.732144 
L 130.378088 -51.732144 
L 130.654813 -51.732144 
L 130.931538 -51.732144 
L 131.208264 -51.732144 
L 131.484989 -51.732144 
L 131.761715 -51.732144 
L 132.03844 -51.732144 
L 132.315165 -51.732144 
L 132.591891 -51.732144 
L 132.868616 -51.732144 
L 133.145341 -51.732144 
L 133.422067 -51.732144 
L 133.698792 -51.732144 
L 133.975518 -51.732144 
L 134.252243 -51.732144 
L 134.528968 -51.732144 
L 134.805694 -51.732144 
L 135.082419 -51.732144 
L 135.359144 -51.732144 
L 135.63587 -51.732144 
L 135.912595 -51.732144 
L 136.189321 -51.732144 
L 136.466046 -51.732144 
L 136.742771 -51.732144 
L 137.019497 -51.732144 
L 137.296222 -51.732144 
L 137.572947 -51.732144 
L 137.849673 -51.732144 
L 138.126398 -51.732144 
L 138.403123 -51.732144 
L 138.679849 -51.732144 
L 138.956574 -51.732144 
L 139.2333 -51.732144 
L 139.2333 -88.897472 
L 139.2333 -88.897472 
L 138.956574 -88.304041 
L 138.679849 -87.717778 
L 138.403123 -87.138642 
L 138.126398 -86.566593 
L 137.849673 -86.001588 
L 137.572947 -85.443586 
L 137.296222 -84.892542 
L 137.019497 -84.348415 
L 136.742771 -83.811159 
L 136.466046 -83.280729 
L 136.189321 -82.75708 
L 135.912595 -82.240167 
L 135.63587 -81.729942 
L 135.359144 -81.226359 
L 135.082419 -80.72937 
L 134.805694 -80.238927 
L 134.528968 -79.754983 
L 134.252243 -79.277487 
L 133.975518 -78.806392 
L 133.698792 -78.341647 
L 133.422067 -77.883202 
L 133.145341 -77.431008 
L 132.868616 -76.985013 
L 132.591891 -76.545168 
L 132.315165 -76.11142 
L 132.03844 -75.683718 
L 131.761715 -75.26201 
L 131.484989 -74.846245 
L 131.208264 -74.436371 
L 130.931538 -74.032334 
L 130.654813 -73.634084 
L 130.378088 -73.241565 
L 130.101362 -72.854727 
L 129.824637 -72.473516 
L 129.547912 -72.097879 
L 129.271186 -71.727762 
L 128.994461 -71.363113 
L 128.717736 -71.003878 
L 128.44101 -70.650003 
L 128.164285 -70.301436 
L 127.887559 -69.958122 
L 127.610834 -69.620008 
L 127.334109 -69.287041 
L 127.057383 -68.959167 
L 126.780658 -68.636332 
L 126.503933 -68.318484 
L 126.227207 -68.005569 
L 125.950482 -67.697533 
L 125.673756 -67.394324 
L 125.397031 -67.095888 
L 125.120306 -66.802171 
L 124.84358 -66.513123 
L 124.566855 -66.228688 
L 124.29013 -65.948815 
L 124.013404 -65.673452 
L 123.736679 -65.402545 
L 123.459953 -65.136043 
L 123.183228 -64.873893 
L 122.906503 -64.616045 
L 122.629777 -64.362445 
L 122.353052 -64.113044 
L 122.076327 -63.867788 
L 121.799601 -63.626628 
L 121.522876 -63.389513 
L 121.246151 -63.156393 
L 120.969425 -62.927216 
L 120.6927 -62.701933 
L 120.415974 -62.480494 
L 120.139249 -62.26285 
L 119.862524 -62.048951 
L 119.585798 -61.838749 
L 119.309073 -61.632195 
L 119.032348 -61.42924 
L 118.755622 -61.229837 
L 118.478897 -61.033938 
L 118.202171 -60.841495 
L 117.925446 -60.652462 
L 117.648721 -60.466791 
L 117.371995 -60.284437 
L 117.09527 -60.105352 
L 116.818545 -59.929492 
L 116.541819 -59.75681 
L 116.265094 -59.587263 
L 115.988368 -59.420804 
L 115.711643 -59.257391 
L 115.434918 -59.096978 
L 115.158192 -58.939523 
L 114.881467 -58.784982 
L 114.604742 -58.633311 
L 114.328016 -58.48447 
L 114.051291 -58.338414 
L 113.774565 -58.195104 
L 113.49784 -58.054497 
L 113.221115 -57.916552 
L 112.944389 -57.78123 
L 112.667664 -57.648489 
L 112.390939 -57.518289 
L 112.114213 -57.390592 
L 111.837488 -57.265359 
L 111.560763 -57.14255 
L 111.284037 -57.022127 
L 111.007312 -56.904053 
L 110.730586 -56.788291 
L 110.453861 -56.674802 
L 110.177136 -56.563551 
L 109.90041 -56.454502 
L 109.623685 -56.347617 
L 109.34696 -56.242863 
L 109.070234 -56.140203 
L 108.793509 -56.039604 
L 108.516783 -55.94103 
L 108.240058 -55.844449 
L 107.963333 -55.749826 
L 107.686607 -55.657129 
L 107.409882 -55.566324 
L 107.133157 -55.47738 
L 106.856431 -55.390265 
L 106.579706 -55.304947 
L 106.30298 -55.221395 
L 106.026255 -55.139579 
L 105.74953 -55.059468 
L 105.472804 -54.981031 
L 105.196079 -54.904241 
L 104.919354 -54.829066 
L 104.642628 -54.75548 
L 104.365903 -54.683452 
L 104.089178 -54.612956 
L 103.812452 -54.543963 
L 103.535727 -54.476447 
L 103.259001 -54.41038 
L 102.982276 -54.345736 
L 102.705551 -54.282489 
L 102.428825 -54.220613 
L 102.1521 -54.160082 
L 101.875375 -54.100872 
L 101.598649 -54.042957 
L 101.321924 -53.986314 
L 101.045198 -53.930918 
L 100.768473 -53.876747 
L 100.491748 -53.823775 
L 100.215022 -53.771981 
L 99.938297 -53.721343 
L 99.661572 -53.671837 
L 99.384846 -53.623441 
L 99.108121 -53.576135 
L 98.831395 -53.529897 
L 98.55467 -53.484706 
L 98.277945 -53.440541 
L 98.001219 -53.397383 
L 97.724494 -53.35521 
L 97.447769 -53.314005 
L 97.171043 -53.273746 
L 96.894318 -53.234416 
L 96.617593 -53.195995 
L 96.340867 -53.158466 
L 96.064142 -53.121809 
L 95.787416 -53.086008 
L 95.510691 -53.051044 
L 95.233966 -53.016901 
L 94.95724 -52.983562 
L 94.680515 -52.95101 
L 94.40379 -52.919228 
L 94.127064 -52.888201 
L 93.850339 -52.857912 
L 93.573613 -52.828347 
z
" style="stroke: #2ca02c; stroke-opacity: 0.25"/>
    </defs>
    <g clip-path="url(#p99d745d857)">
     <use xlink:href="#m6eea0ddf24" x="0" y="368.39952" style="fill: #2ca02c; fill-opacity: 0.25; stroke: #2ca02c; stroke-opacity: 0.25"/>
    </g>
   </g>
   <g id="FillBetweenPolyCollection_2">
    <defs>
     <path id="m98e9dc3106" d="M 185.723162 -275.17821 
L 185.723162 -51.732144 
L 185.999887 -51.732144 
L 186.276613 -51.732144 
L 186.553338 -51.732144 
L 186.830063 -51.732144 
L 187.106789 -51.732144 
L 187.383514 -51.732144 
L 187.66024 -51.732144 
L 187.936965 -51.732144 
L 188.21369 -51.732144 
L 188.490416 -51.732144 
L 188.767141 -51.732144 
L 189.043866 -51.732144 
L 189.320592 -51.732144 
L 189.597317 -51.732144 
L 189.874042 -51.732144 
L 190.150768 -51.732144 
L 190.427493 -51.732144 
L 190.704219 -51.732144 
L 190.980944 -51.732144 
L 191.257669 -51.732144 
L 191.534395 -51.732144 
L 191.81112 -51.732144 
L 192.087845 -51.732144 
L 192.364571 -51.732144 
L 192.641296 -51.732144 
L 192.918022 -51.732144 
L 193.194747 -51.732144 
L 193.471472 -51.732144 
L 193.748198 -51.732144 
L 194.024923 -51.732144 
L 194.301648 -51.732144 
L 194.578374 -51.732144 
L 194.855099 -51.732144 
L 195.131825 -51.732144 
L 195.40855 -51.732144 
L 195.685275 -51.732144 
L 195.962001 -51.732144 
L 196.238726 -51.732144 
L 196.515451 -51.732144 
L 196.792177 -51.732144 
L 197.068902 -51.732144 
L 197.345627 -51.732144 
L 197.622353 -51.732144 
L 197.899078 -51.732144 
L 198.175804 -51.732144 
L 198.452529 -51.732144 
L 198.729254 -51.732144 
L 199.00598 -51.732144 
L 199.282705 -51.732144 
L 199.55943 -51.732144 
L 199.836156 -51.732144 
L 200.112881 -51.732144 
L 200.389607 -51.732144 
L 200.666332 -51.732144 
L 200.943057 -51.732144 
L 201.219783 -51.732144 
L 201.496508 -51.732144 
L 201.773233 -51.732144 
L 202.049959 -51.732144 
L 202.326684 -51.732144 
L 202.60341 -51.732144 
L 202.880135 -51.732144 
L 203.15686 -51.732144 
L 203.433586 -51.732144 
L 203.710311 -51.732144 
L 203.987036 -51.732144 
L 204.263762 -51.732144 
L 204.540487 -51.732144 
L 204.817212 -51.732144 
L 205.093938 -51.732144 
L 205.370663 -51.732144 
L 205.647389 -51.732144 
L 205.924114 -51.732144 
L 206.200839 -51.732144 
L 206.477565 -51.732144 
L 206.75429 -51.732144 
L 207.031015 -51.732144 
L 207.307741 -51.732144 
L 207.584466 -51.732144 
L 207.861192 -51.732144 
L 208.137917 -51.732144 
L 208.414642 -51.732144 
L 208.691368 -51.732144 
L 208.968093 -51.732144 
L 209.244818 -51.732144 
L 209.521544 -51.732144 
L 209.798269 -51.732144 
L 210.074995 -51.732144 
L 210.35172 -51.732144 
L 210.628445 -51.732144 
L 210.905171 -51.732144 
L 211.181896 -51.732144 
L 211.458621 -51.732144 
L 211.735347 -51.732144 
L 212.012072 -51.732144 
L 212.288798 -51.732144 
L 212.565523 -51.732144 
L 212.842248 -51.732144 
L 213.118974 -51.732144 
L 213.395699 -51.732144 
L 213.672424 -51.732144 
L 213.94915 -51.732144 
L 214.225875 -51.732144 
L 214.5026 -51.732144 
L 214.779326 -51.732144 
L 215.056051 -51.732144 
L 215.332777 -51.732144 
L 215.609502 -51.732144 
L 215.886227 -51.732144 
L 216.162953 -51.732144 
L 216.439678 -51.732144 
L 216.716403 -51.732144 
L 216.993129 -51.732144 
L 217.269854 -51.732144 
L 217.54658 -51.732144 
L 217.823305 -51.732144 
L 218.10003 -51.732144 
L 218.376756 -51.732144 
L 218.653481 -51.732144 
L 218.930206 -51.732144 
L 219.206932 -51.732144 
L 219.483657 -51.732144 
L 219.760383 -51.732144 
L 220.037108 -51.732144 
L 220.313833 -51.732144 
L 220.590559 -51.732144 
L 220.867284 -51.732144 
L 221.144009 -51.732144 
L 221.420735 -51.732144 
L 221.69746 -51.732144 
L 221.974185 -51.732144 
L 222.250911 -51.732144 
L 222.527636 -51.732144 
L 222.804362 -51.732144 
L 223.081087 -51.732144 
L 223.357812 -51.732144 
L 223.634538 -51.732144 
L 223.911263 -51.732144 
L 224.187988 -51.732144 
L 224.464714 -51.732144 
L 224.741439 -51.732144 
L 225.018165 -51.732144 
L 225.29489 -51.732144 
L 225.571615 -51.732144 
L 225.848341 -51.732144 
L 226.125066 -51.732144 
L 226.401791 -51.732144 
L 226.678517 -51.732144 
L 226.955242 -51.732144 
L 227.231968 -51.732144 
L 227.508693 -51.732144 
L 227.785418 -51.732144 
L 228.062144 -51.732144 
L 228.338869 -51.732144 
L 228.615594 -51.732144 
L 228.89232 -51.732144 
L 229.169045 -51.732144 
L 229.44577 -51.732144 
L 229.722496 -51.732144 
L 229.999221 -51.732144 
L 230.275947 -51.732144 
L 230.552672 -51.732144 
L 230.829397 -51.732144 
L 231.106123 -51.732144 
L 231.382848 -51.732144 
L 231.382848 -275.17821 
L 231.382848 -275.17821 
L 231.106123 -276.356299 
L 230.829397 -277.526118 
L 230.552672 -278.687476 
L 230.275947 -279.840178 
L 229.999221 -280.984032 
L 229.722496 -282.118848 
L 229.44577 -283.244434 
L 229.169045 -284.360601 
L 228.89232 -285.467159 
L 228.615594 -286.563922 
L 228.338869 -287.650701 
L 228.062144 -288.727312 
L 227.785418 -289.793568 
L 227.508693 -290.849287 
L 227.231968 -291.894286 
L 226.955242 -292.928384 
L 226.678517 -293.951401 
L 226.401791 -294.963158 
L 226.125066 -295.96348 
L 225.848341 -296.952189 
L 225.571615 -297.929112 
L 225.29489 -298.894076 
L 225.018165 -299.846911 
L 224.741439 -300.787447 
L 224.464714 -301.715517 
L 224.187988 -302.630955 
L 223.911263 -303.533597 
L 223.634538 -304.423282 
L 223.357812 -305.299848 
L 223.081087 -306.163139 
L 222.804362 -307.012998 
L 222.527636 -307.84927 
L 222.250911 -308.671804 
L 221.974185 -309.480451 
L 221.69746 -310.275062 
L 221.420735 -311.055492 
L 221.144009 -311.821599 
L 220.867284 -312.573241 
L 220.590559 -313.31028 
L 220.313833 -314.03258 
L 220.037108 -314.740009 
L 219.760383 -315.432433 
L 219.483657 -316.109727 
L 219.206932 -316.771762 
L 218.930206 -317.418417 
L 218.653481 -318.049571 
L 218.376756 -318.665106 
L 218.10003 -319.264906 
L 217.823305 -319.84886 
L 217.54658 -320.416857 
L 217.269854 -320.968792 
L 216.993129 -321.50456 
L 216.716403 -322.02406 
L 216.439678 -322.527194 
L 216.162953 -323.013868 
L 215.886227 -323.483988 
L 215.609502 -323.937467 
L 215.332777 -324.374218 
L 215.056051 -324.794158 
L 214.779326 -325.197208 
L 214.5026 -325.58329 
L 214.225875 -325.952332 
L 213.94915 -326.304262 
L 213.672424 -326.639015 
L 213.395699 -326.956525 
L 213.118974 -327.256732 
L 212.842248 -327.53958 
L 212.565523 -327.805013 
L 212.288798 -328.052981 
L 212.012072 -328.283436 
L 211.735347 -328.496335 
L 211.458621 -328.691636 
L 211.181896 -328.869302 
L 210.905171 -329.029299 
L 210.628445 -329.171596 
L 210.35172 -329.296166 
L 210.074995 -329.402985 
L 209.798269 -329.492032 
L 209.521544 -329.56329 
L 209.244818 -329.616745 
L 208.968093 -329.652388 
L 208.691368 -329.670211 
L 208.414642 -329.670211 
L 208.137917 -329.652388 
L 207.861192 -329.616745 
L 207.584466 -329.56329 
L 207.307741 -329.492032 
L 207.031015 -329.402985 
L 206.75429 -329.296166 
L 206.477565 -329.171596 
L 206.200839 -329.029299 
L 205.924114 -328.869302 
L 205.647389 -328.691636 
L 205.370663 -328.496335 
L 205.093938 -328.283436 
L 204.817212 -328.052981 
L 204.540487 -327.805013 
L 204.263762 -327.53958 
L 203.987036 -327.256732 
L 203.710311 -326.956525 
L 203.433586 -326.639015 
L 203.15686 -326.304262 
L 202.880135 -325.952332 
L 202.60341 -325.58329 
L 202.326684 -325.197208 
L 202.049959 -324.794158 
L 201.773233 -324.374218 
L 201.496508 -323.937467 
L 201.219783 -323.483988 
L 200.943057 -323.013868 
L 200.666332 -322.527194 
L 200.389607 -322.02406 
L 200.112881 -321.50456 
L 199.836156 -320.968792 
L 199.55943 -320.416857 
L 199.282705 -319.84886 
L 199.00598 -319.264906 
L 198.729254 -318.665106 
L 198.452529 -318.049571 
L 198.175804 -317.418417 
L 197.899078 -316.771762 
L 197.622353 -316.109727 
L 197.345627 -315.432433 
L 197.068902 -314.740009 
L 196.792177 -314.03258 
L 196.515451 -313.31028 
L 196.238726 -312.573241 
L 195.962001 -311.821599 
L 195.685275 -311.055492 
L 195.40855 -310.275062 
L 195.131825 -309.480451 
L 194.855099 -308.671804 
L 194.578374 -307.84927 
L 194.301648 -307.012998 
L 194.024923 -306.163139 
L 193.748198 -305.299848 
L 193.471472 -304.423282 
L 193.194747 -303.533597 
L 192.918022 -302.630955 
L 192.641296 -301.715517 
L 192.364571 -300.787447 
L 192.087845 -299.846911 
L 191.81112 -298.894076 
L 191.534395 -297.929112 
L 191.257669 -296.952189 
L 190.980944 -295.96348 
L 190.704219 -294.963158 
L 190.427493 -293.951401 
L 190.150768 -292.928384 
L 189.874042 -291.894286 
L 189.597317 -290.849287 
L 189.320592 -289.793568 
L 189.043866 -288.727312 
L 188.767141 -287.650701 
L 188.490416 -286.563922 
L 188.21369 -285.467159 
L 187.936965 -284.360601 
L 187.66024 -283.244434 
L 187.383514 -282.118848 
L 187.106789 -280.984032 
L 186.830063 -279.840178 
L 186.553338 -278.687476 
L 186.276613 -277.526118 
L 185.999887 -276.356299 
L 185.723162 -275.17821 
z
" style="stroke: #d62728; stroke-opacity: 0.25"/>
    </defs>
    <g clip-path="url(#p99d745d857)">
     <use xlink:href="#m98e9dc3106" x="0" y="368.39952" style="fill: #d62728; fill-opacity: 0.25; stroke: #d62728; stroke-opacity: 0.25"/>
    </g>
   </g>
   <g id="FillBetweenPolyCollection_3">
    <defs>
     <path id="m676f235389" d="M 243.282039 -219.467721 
L 243.282039 -51.732144 
L 243.558764 -51.732144 
L 243.83549 -51.732144 
L 244.112215 -51.732144 
L 244.388941 -51.732144 
L 244.665666 -51.732144 
L 244.942391 -51.732144 
L 245.219117 -51.732144 
L 245.495842 -51.732144 
L 245.772567 -51.732144 
L 246.049293 -51.732144 
L 246.326018 -51.732144 
L 246.602743 -51.732144 
L 246.879469 -51.732144 
L 247.156194 -51.732144 
L 247.43292 -51.732144 
L 247.709645 -51.732144 
L 247.98637 -51.732144 
L 248.263096 -51.732144 
L 248.539821 -51.732144 
L 248.816546 -51.732144 
L 249.093272 -51.732144 
L 249.369997 -51.732144 
L 249.646723 -51.732144 
L 249.923448 -51.732144 
L 250.200173 -51.732144 
L 250.476899 -51.732144 
L 250.753624 -51.732144 
L 251.030349 -51.732144 
L 251.307075 -51.732144 
L 251.5838 -51.732144 
L 251.860526 -51.732144 
L 252.137251 -51.732144 
L 252.413976 -51.732144 
L 252.690702 -51.732144 
L 252.967427 -51.732144 
L 253.244152 -51.732144 
L 253.520878 -51.732144 
L 253.797603 -51.732144 
L 254.074329 -51.732144 
L 254.351054 -51.732144 
L 254.627779 -51.732144 
L 254.904505 -51.732144 
L 255.18123 -51.732144 
L 255.457955 -51.732144 
L 255.734681 -51.732144 
L 256.011406 -51.732144 
L 256.288131 -51.732144 
L 256.564857 -51.732144 
L 256.841582 -51.732144 
L 257.118308 -51.732144 
L 257.395033 -51.732144 
L 257.671758 -51.732144 
L 257.948484 -51.732144 
L 258.225209 -51.732144 
L 258.501934 -51.732144 
L 258.77866 -51.732144 
L 259.055385 -51.732144 
L 259.332111 -51.732144 
L 259.608836 -51.732144 
L 259.885561 -51.732144 
L 260.162287 -51.732144 
L 260.439012 -51.732144 
L 260.715737 -51.732144 
L 260.992463 -51.732144 
L 261.269188 -51.732144 
L 261.545914 -51.732144 
L 261.822639 -51.732144 
L 262.099364 -51.732144 
L 262.37609 -51.732144 
L 262.652815 -51.732144 
L 262.92954 -51.732144 
L 263.206266 -51.732144 
L 263.482991 -51.732144 
L 263.759716 -51.732144 
L 264.036442 -51.732144 
L 264.313167 -51.732144 
L 264.589893 -51.732144 
L 264.866618 -51.732144 
L 265.143343 -51.732144 
L 265.420069 -51.732144 
L 265.696794 -51.732144 
L 265.973519 -51.732144 
L 266.250245 -51.732144 
L 266.52697 -51.732144 
L 266.803696 -51.732144 
L 267.080421 -51.732144 
L 267.357146 -51.732144 
L 267.633872 -51.732144 
L 267.910597 -51.732144 
L 268.187322 -51.732144 
L 268.464048 -51.732144 
L 268.740773 -51.732144 
L 269.017499 -51.732144 
L 269.294224 -51.732144 
L 269.570949 -51.732144 
L 269.847675 -51.732144 
L 270.1244 -51.732144 
L 270.401125 -51.732144 
L 270.677851 -51.732144 
L 270.954576 -51.732144 
L 271.231301 -51.732144 
L 271.508027 -51.732144 
L 271.784752 -51.732144 
L 272.061478 -51.732144 
L 272.338203 -51.732144 
L 272.614928 -51.732144 
L 272.891654 -51.732144 
L 273.168379 -51.732144 
L 273.445104 -51.732144 
L 273.72183 -51.732144 
L 273.998555 -51.732144 
L 274.275281 -51.732144 
L 274.552006 -51.732144 
L 274.828731 -51.732144 
L 275.105457 -51.732144 
L 275.382182 -51.732144 
L 275.658907 -51.732144 
L 275.935633 -51.732144 
L 276.212358 -51.732144 
L 276.489084 -51.732144 
L 276.765809 -51.732144 
L 277.042534 -51.732144 
L 277.31926 -51.732144 
L 277.595985 -51.732144 
L 277.87271 -51.732144 
L 278.149436 -51.732144 
L 278.426161 -51.732144 
L 278.702887 -51.732144 
L 278.979612 -51.732144 
L 279.256337 -51.732144 
L 279.533063 -51.732144 
L 279.809788 -51.732144 
L 280.086513 -51.732144 
L 280.363239 -51.732144 
L 280.639964 -51.732144 
L 280.916689 -51.732144 
L 281.193415 -51.732144 
L 281.47014 -51.732144 
L 281.746866 -51.732144 
L 282.023591 -51.732144 
L 282.300316 -51.732144 
L 282.577042 -51.732144 
L 282.853767 -51.732144 
L 283.130492 -51.732144 
L 283.407218 -51.732144 
L 283.683943 -51.732144 
L 283.960669 -51.732144 
L 284.237394 -51.732144 
L 284.514119 -51.732144 
L 284.790845 -51.732144 
L 285.06757 -51.732144 
L 285.344295 -51.732144 
L 285.621021 -51.732144 
L 285.897746 -51.732144 
L 286.174472 -51.732144 
L 286.451197 -51.732144 
L 286.727922 -51.732144 
L 287.004648 -51.732144 
L 287.281373 -51.732144 
L 287.558098 -51.732144 
L 287.834824 -51.732144 
L 288.111549 -51.732144 
L 288.388274 -51.732144 
L 288.665 -51.732144 
L 288.941725 -51.732144 
L 288.941725 -70.301436 
L 288.941725 -70.301436 
L 288.665 -70.650003 
L 288.388274 -71.003878 
L 288.111549 -71.363113 
L 287.834824 -71.727762 
L 287.558098 -72.097879 
L 287.281373 -72.473516 
L 287.004648 -72.854727 
L 286.727922 -73.241565 
L 286.451197 -73.634084 
L 286.174472 -74.032334 
L 285.897746 -74.436371 
L 285.621021 -74.846245 
L 285.344295 -75.26201 
L 285.06757 -75.683718 
L 284.790845 -76.11142 
L 284.514119 -76.545168 
L 284.237394 -76.985013 
L 283.960669 -77.431008 
L 283.683943 -77.883202 
L 283.407218 -78.341647 
L 283.130492 -78.806392 
L 282.853767 -79.277487 
L 282.577042 -79.754983 
L 282.300316 -80.238927 
L 282.023591 -80.72937 
L 281.746866 -81.226359 
L 281.47014 -81.729942 
L 281.193415 -82.240167 
L 280.916689 -82.75708 
L 280.639964 -83.280729 
L 280.363239 -83.811159 
L 280.086513 -84.348415 
L 279.809788 -84.892542 
L 279.533063 -85.443586 
L 279.256337 -86.001588 
L 278.979612 -86.566593 
L 278.702887 -87.138642 
L 278.426161 -87.717778 
L 278.149436 -88.304041 
L 277.87271 -88.897472 
L 277.595985 -89.49811 
L 277.31926 -90.105994 
L 277.042534 -90.721163 
L 276.765809 -91.343653 
L 276.489084 -91.9735 
L 276.212358 -92.610742 
L 275.935633 -93.255411 
L 275.658907 -93.907542 
L 275.382182 -94.567168 
L 275.105457 -95.234321 
L 274.828731 -95.909032 
L 274.552006 -96.59133 
L 274.275281 -97.281246 
L 273.998555 -97.978806 
L 273.72183 -98.684037 
L 273.445104 -99.396967 
L 273.168379 -100.117619 
L 272.891654 -100.846016 
L 272.614928 -101.582182 
L 272.338203 -102.326138 
L 272.061478 -103.077904 
L 271.784752 -103.837499 
L 271.508027 -104.60494 
L 271.231301 -105.380244 
L 270.954576 -106.163426 
L 270.677851 -106.954499 
L 270.401125 -107.753478 
L 270.1244 -108.560371 
L 269.847675 -109.37519 
L 269.570949 -110.197943 
L 269.294224 -111.028636 
L 269.017499 -111.867276 
L 268.740773 -112.713866 
L 268.464048 -113.568408 
L 268.187322 -114.430905 
L 267.910597 -115.301355 
L 267.633872 -116.179756 
L 267.357146 -117.066105 
L 267.080421 -117.960397 
L 266.803696 -118.862625 
L 266.52697 -119.772781 
L 266.250245 -120.690854 
L 265.973519 -121.616833 
L 265.696794 -122.550704 
L 265.420069 -123.492453 
L 265.143343 -124.442063 
L 264.866618 -125.399514 
L 264.589893 -126.364787 
L 264.313167 -127.337859 
L 264.036442 -128.318707 
L 263.759716 -129.307305 
L 263.482991 -130.303625 
L 263.206266 -131.307637 
L 262.92954 -132.319312 
L 262.652815 -133.338614 
L 262.37609 -134.36551 
L 262.099364 -135.399963 
L 261.822639 -136.441932 
L 261.545914 -137.491379 
L 261.269188 -138.548259 
L 260.992463 -139.612528 
L 260.715737 -140.684139 
L 260.439012 -141.763044 
L 260.162287 -142.849191 
L 259.885561 -143.942529 
L 259.608836 -145.043002 
L 259.332111 -146.150553 
L 259.055385 -147.265123 
L 258.77866 -148.386653 
L 258.501934 -149.515077 
L 258.225209 -150.650333 
L 257.948484 -151.792351 
L 257.671758 -152.941064 
L 257.395033 -154.0964 
L 257.118308 -155.258285 
L 256.841582 -156.426643 
L 256.564857 -157.601399 
L 256.288131 -158.78247 
L 256.011406 -159.969777 
L 255.734681 -161.163234 
L 255.457955 -162.362755 
L 255.18123 -163.568253 
L 254.904505 -164.779637 
L 254.627779 -165.996815 
L 254.351054 -167.219692 
L 254.074329 -168.448171 
L 253.797603 -169.682154 
L 253.520878 -170.921539 
L 253.244152 -172.166224 
L 252.967427 -173.416104 
L 252.690702 -174.671071 
L 252.413976 -175.931016 
L 252.137251 -177.195827 
L 251.860526 -178.465392 
L 251.5838 -179.739594 
L 251.307075 -181.018316 
L 251.030349 -182.301438 
L 250.753624 -183.588839 
L 250.476899 -184.880395 
L 250.200173 -186.175979 
L 249.923448 -187.475465 
L 249.646723 -188.778723 
L 249.369997 -190.08562 
L 249.093272 -191.396024 
L 248.816546 -192.709798 
L 248.539821 -194.026804 
L 248.263096 -195.346905 
L 247.98637 -196.669957 
L 247.709645 -197.995817 
L 247.43292 -199.324342 
L 247.156194 -200.655383 
L 246.879469 -201.988792 
L 246.602743 -203.324418 
L 246.326018 -204.662109 
L 246.049293 -206.00171 
L 245.772567 -207.343067 
L 245.495842 -208.686021 
L 245.219117 -210.030414 
L 244.942391 -211.376084 
L 244.665666 -212.722868 
L 244.388941 -214.070604 
L 244.112215 -215.419125 
L 243.83549 -216.768264 
L 243.558764 -218.117853 
L 243.282039 -219.467721 
z
" style="stroke: #9467bd; stroke-opacity: 0.25"/>
    </defs>
    <g clip-path="url(#p99d745d857)">
     <use xlink:href="#m676f235389" x="0" y="368.39952" style="fill: #9467bd; fill-opacity: 0.25; stroke: #9467bd; stroke-opacity: 0.25"/>
    </g>
   </g>
   <g id="matplotlib.axis_1">
    <g id="xtick_1">
     <g id="line2d_1">
      <path d="M 70.328682 330.565145 
L 70.328682 24.81423 
" clip-path="url(#p99d745d857)" style="fill: none; stroke-dasharray: 0.8,1.32; stroke-dashoffset: 0; stroke: #b0b0b0; stroke-width: 0.8"/>
     </g>
     <g id="line2d_2">
      <defs>
       <path id="m6874453075" d="M 0 0 
L 0 3.5 
" style="stroke: #000000; stroke-width: 0.8"/>
      </defs>
      <g>
       <use xlink:href="#m6874453075" x="70.328682" y="330.565145" style="stroke: #000000; stroke-width: 0.8"/>
      </g>
     </g>
     <g id="text_1">
      <!-- −60 -->
      <g transform="translate(59.776339 345.163582) scale(0.1 -0.1)">
       <defs>
        <path id="DejaVuSans-2212" d="M 678 2272 
L 4684 2272 
L 4684 1741 
L 678 1741 
L 678 2272 
z
" transform="scale(0.015625)"/>
        <path id="DejaVuSans-36" d="M 2113 2584 
Q 1688 2584 1439 2293 
Q 1191 2003 1191 1497 
Q 1191 994 1439 701 
Q 1688 409 2113 409 
Q 2538 409 2786 701 
Q 3034 994 3034 1497 
Q 3034 2003 2786 2293 
Q 2538 2584 2113 2584 
z
M 3366 4563 
L 3366 3988 
Q 3128 4100 2886 4159 
Q 2644 4219 2406 4219 
Q 1781 4219 1451 3797 
Q 1122 3375 1075 2522 
Q 1259 2794 1537 2939 
Q 1816 3084 2150 3084 
Q 2853 3084 3261 2657 
Q 3669 2231 3669 1497 
Q 3669 778 3244 343 
Q 2819 -91 2113 -91 
Q 1303 -91 875 529 
Q 447 1150 447 2328 
Q 447 3434 972 4092 
Q 1497 4750 2381 4750 
Q 2619 4750 2861 4703 
Q 3103 4656 3366 4563 
z
" transform="scale(0.015625)"/>
        <path id="DejaVuSans-30" d="M 2034 4250 
Q 1547 4250 1301 3770 
Q 1056 3291 1056 2328 
Q 1056 1369 1301 889 
Q 1547 409 2034 409 
Q 2525 409 2770 889 
Q 3016 1369 3016 2328 
Q 3016 3291 2770 3770 
Q 2525 4250 2034 4250 
z
M 2034 4750 
Q 2819 4750 3233 4129 
Q 3647 3509 3647 2328 
Q 3647 1150 3233 529 
Q 2819 -91 2034 -91 
Q 1250 -91 836 529 
Q 422 1150 422 2328 
Q 422 3509 836 4129 
Q 1250 4750 2034 4750 
z
" transform="scale(0.015625)"/>
       </defs>
       <use xlink:href="#DejaVuSans-2212"/>
       <use xlink:href="#DejaVuSans-36" transform="translate(83.789062 0)"/>
       <use xlink:href="#DejaVuSans-30" transform="translate(147.412109 0)"/>
      </g>
     </g>
    </g>
    <g id="xtick_2">
     <g id="line2d_3">
      <path d="M 116.403457 330.565145 
L 116.403457 24.81423 
" clip-path="url(#p99d745d857)" style="fill: none; stroke-dasharray: 0.8,1.32; stroke-dashoffset: 0; stroke: #b0b0b0; stroke-width: 0.8"/>
     </g>
     <g id="line2d_4">
      <g>
       <use xlink:href="#m6874453075" x="116.403457" y="330.565145" style="stroke: #000000; stroke-width: 0.8"/>
      </g>
     </g>
     <g id="text_2">
      <!-- −40 -->
      <g transform="translate(105.851113 345.163582) scale(0.1 -0.1)">
       <defs>
        <path id="DejaVuSans-34" d="M 2419 4116 
L 825 1625 
L 2419 1625 
L 2419 4116 
z
M 2253 4666 
L 3047 4666 
L 3047 1625 
L 3713 1625 
L 3713 1100 
L 3047 1100 
L 3047 0 
L 2419 0 
L 2419 1100 
L 313 1100 
L 313 1709 
L 2253 4666 
z
" transform="scale(0.015625)"/>
       </defs>
       <use xlink:href="#DejaVuSans-2212"/>
       <use xlink:href="#DejaVuSans-34" transform="translate(83.789062 0)"/>
       <use xlink:href="#DejaVuSans-30" transform="translate(147.412109 0)"/>
      </g>
     </g>
    </g>
    <g id="xtick_3">
     <g id="line2d_5">
      <path d="M 162.478231 330.565145 
L 162.478231 24.81423 
" clip-path="url(#p99d745d857)" style="fill: none; stroke-dasharray: 0.8,1.32; stroke-dashoffset: 0; stroke: #b0b0b0; stroke-width: 0.8"/>
     </g>
     <g id="line2d_6">
      <g>
       <use xlink:href="#m6874453075" x="162.478231" y="330.565145" style="stroke: #000000; stroke-width: 0.8"/>
      </g>
     </g>
     <g id="text_3">
      <!-- −20 -->
      <g transform="translate(151.925887 345.163582) scale(0.1 -0.1)">
       <defs>
        <path id="DejaVuSans-32" d="M 1228 531 
L 3431 531 
L 3431 0 
L 469 0 
L 469 531 
Q 828 903 1448 1529 
Q 2069 2156 2228 2338 
Q 2531 2678 2651 2914 
Q 2772 3150 2772 3378 
Q 2772 3750 2511 3984 
Q 2250 4219 1831 4219 
Q 1534 4219 1204 4116 
Q 875 4013 500 3803 
L 500 4441 
Q 881 4594 1212 4672 
Q 1544 4750 1819 4750 
Q 2544 4750 2975 4387 
Q 3406 4025 3406 3419 
Q 3406 3131 3298 2873 
Q 3191 2616 2906 2266 
Q 2828 2175 2409 1742 
Q 1991 1309 1228 531 
z
" transform="scale(0.015625)"/>
       </defs>
       <use xlink:href="#DejaVuSans-2212"/>
       <use xlink:href="#DejaVuSans-32" transform="translate(83.789062 0)"/>
       <use xlink:href="#DejaVuSans-30" transform="translate(147.412109 0)"/>
      </g>
     </g>
    </g>
    <g id="xtick_4">
     <g id="line2d_7">
      <path d="M 208.553005 330.565145 
L 208.553005 24.81423 
" clip-path="url(#p99d745d857)" style="fill: none; stroke-dasharray: 0.8,1.32; stroke-dashoffset: 0; stroke: #b0b0b0; stroke-width: 0.8"/>
     </g>
     <g id="line2d_8">
      <g>
       <use xlink:href="#m6874453075" x="208.553005" y="330.565145" style="stroke: #000000; stroke-width: 0.8"/>
      </g>
     </g>
     <g id="text_4">
      <!-- 0 -->
      <g transform="translate(205.371755 345.163582) scale(0.1 -0.1)">
       <use xlink:href="#DejaVuSans-30"/>
      </g>
     </g>
    </g>
    <g id="xtick_5">
     <g id="line2d_9">
      <path d="M 254.627779 330.565145 
L 254.627779 24.81423 
" clip-path="url(#p99d745d857)" style="fill: none; stroke-dasharray: 0.8,1.32; stroke-dashoffset: 0; stroke: #b0b0b0; stroke-width: 0.8"/>
     </g>
     <g id="line2d_10">
      <g>
       <use xlink:href="#m6874453075" x="254.627779" y="330.565145" style="stroke: #000000; stroke-width: 0.8"/>
      </g>
     </g>
     <g id="text_5">
      <!-- 20 -->
      <g transform="translate(248.265279 345.163582) scale(0.1 -0.1)">
       <use xlink:href="#DejaVuSans-32"/>
       <use xlink:href="#DejaVuSans-30" transform="translate(63.623047 0)"/>
      </g>
     </g>
    </g>
    <g id="xtick_6">
     <g id="line2d_11">
      <path d="M 300.702553 330.565145 
L 300.702553 24.81423 
" clip-path="url(#p99d745d857)" style="fill: none; stroke-dasharray: 0.8,1.32; stroke-dashoffset: 0; stroke: #b0b0b0; stroke-width: 0.8"/>
     </g>
     <g id="line2d_12">
      <g>
       <use xlink:href="#m6874453075" x="300.702553" y="330.565145" style="stroke: #000000; stroke-width: 0.8"/>
      </g>
     </g>
     <g id="text_6">
      <!-- 40 -->
      <g transform="translate(294.340053 345.163582) scale(0.1 -0.1)">
       <use xlink:href="#DejaVuSans-34"/>
       <use xlink:href="#DejaVuSans-30" transform="translate(63.623047 0)"/>
      </g>
     </g>
    </g>
    <g id="xtick_7">
     <g id="line2d_13">
      <path d="M 346.777328 330.565145 
L 346.777328 24.81423 
" clip-path="url(#p99d745d857)" style="fill: none; stroke-dasharray: 0.8,1.32; stroke-dashoffset: 0; stroke: #b0b0b0; stroke-width: 0.8"/>
     </g>
     <g id="line2d_14">
      <g>
       <use xlink:href="#m6874453075" x="346.777328" y="330.565145" style="stroke: #000000; stroke-width: 0.8"/>
      </g>
     </g>
     <g id="text_7">
      <!-- 60 -->
      <g transform="translate(340.414828 345.163582) scale(0.1 -0.1)">
       <use xlink:href="#DejaVuSans-36"/>
       <use xlink:href="#DejaVuSans-30" transform="translate(63.623047 0)"/>
      </g>
     </g>
    </g>
    <g id="text_8">
     <!-- distance from TOF bin center (s - s_c) [mm] -->
     <g transform="translate(99.530349 358.841707) scale(0.1 -0.1)">
      <defs>
       <path id="DejaVuSans-64" d="M 2906 2969 
L 2906 4863 
L 3481 4863 
L 3481 0 
L 2906 0 
L 2906 525 
Q 2725 213 2448 61 
Q 2172 -91 1784 -91 
Q 1150 -91 751 415 
Q 353 922 353 1747 
Q 353 2572 751 3078 
Q 1150 3584 1784 3584 
Q 2172 3584 2448 3432 
Q 2725 3281 2906 2969 
z
M 947 1747 
Q 947 1113 1208 752 
Q 1469 391 1925 391 
Q 2381 391 2643 752 
Q 2906 1113 2906 1747 
Q 2906 2381 2643 2742 
Q 2381 3103 1925 3103 
Q 1469 3103 1208 2742 
Q 947 2381 947 1747 
z
" transform="scale(0.015625)"/>
       <path id="DejaVuSans-69" d="M 603 3500 
L 1178 3500 
L 1178 0 
L 603 0 
L 603 3500 
z
M 603 4863 
L 1178 4863 
L 1178 4134 
L 603 4134 
L 603 4863 
z
" transform="scale(0.015625)"/>
       <path id="DejaVuSans-73" d="M 2834 3397 
L 2834 2853 
Q 2591 2978 2328 3040 
Q 2066 3103 1784 3103 
Q 1356 3103 1142 2972 
Q 928 2841 928 2578 
Q 928 2378 1081 2264 
Q 1234 2150 1697 2047 
L 1894 2003 
Q 2506 1872 2764 1633 
Q 3022 1394 3022 966 
Q 3022 478 2636 193 
Q 2250 -91 1575 -91 
Q 1294 -91 989 -36 
Q 684 19 347 128 
L 347 722 
Q 666 556 975 473 
Q 1284 391 1588 391 
Q 1994 391 2212 530 
Q 2431 669 2431 922 
Q 2431 1156 2273 1281 
Q 2116 1406 1581 1522 
L 1381 1569 
Q 847 1681 609 1914 
Q 372 2147 372 2553 
Q 372 3047 722 3315 
Q 1072 3584 1716 3584 
Q 2034 3584 2315 3537 
Q 2597 3491 2834 3397 
z
" transform="scale(0.015625)"/>
       <path id="DejaVuSans-74" d="M 1172 4494 
L 1172 3500 
L 2356 3500 
L 2356 3053 
L 1172 3053 
L 1172 1153 
Q 1172 725 1289 603 
Q 1406 481 1766 481 
L 2356 481 
L 2356 0 
L 1766 0 
Q 1100 0 847 248 
Q 594 497 594 1153 
L 594 3053 
L 172 3053 
L 172 3500 
L 594 3500 
L 594 4494 
L 1172 4494 
z
" transform="scale(0.015625)"/>
       <path id="DejaVuSans-61" d="M 2194 1759 
Q 1497 1759 1228 1600 
Q 959 1441 959 1056 
Q 959 750 1161 570 
Q 1363 391 1709 391 
Q 2188 391 2477 730 
Q 2766 1069 2766 1631 
L 2766 1759 
L 2194 1759 
z
M 3341 1997 
L 3341 0 
L 2766 0 
L 2766 531 
Q 2569 213 2275 61 
Q 1981 -91 1556 -91 
Q 1019 -91 701 211 
Q 384 513 384 1019 
Q 384 1609 779 1909 
Q 1175 2209 1959 2209 
L 2766 2209 
L 2766 2266 
Q 2766 2663 2505 2880 
Q 2244 3097 1772 3097 
Q 1472 3097 1187 3025 
Q 903 2953 641 2809 
L 641 3341 
Q 956 3463 1253 3523 
Q 1550 3584 1831 3584 
Q 2591 3584 2966 3190 
Q 3341 2797 3341 1997 
z
" transform="scale(0.015625)"/>
       <path id="DejaVuSans-6e" d="M 3513 2113 
L 3513 0 
L 2938 0 
L 2938 2094 
Q 2938 2591 2744 2837 
Q 2550 3084 2163 3084 
Q 1697 3084 1428 2787 
Q 1159 2491 1159 1978 
L 1159 0 
L 581 0 
L 581 3500 
L 1159 3500 
L 1159 2956 
Q 1366 3272 1645 3428 
Q 1925 3584 2291 3584 
Q 2894 3584 3203 3211 
Q 3513 2838 3513 2113 
z
" transform="scale(0.015625)"/>
       <path id="DejaVuSans-63" d="M 3122 3366 
L 3122 2828 
Q 2878 2963 2633 3030 
Q 2388 3097 2138 3097 
Q 1578 3097 1268 2742 
Q 959 2388 959 1747 
Q 959 1106 1268 751 
Q 1578 397 2138 397 
Q 2388 397 2633 464 
Q 2878 531 3122 666 
L 3122 134 
Q 2881 22 2623 -34 
Q 2366 -91 2075 -91 
Q 1284 -91 818 406 
Q 353 903 353 1747 
Q 353 2603 823 3093 
Q 1294 3584 2113 3584 
Q 2378 3584 2631 3529 
Q 2884 3475 3122 3366 
z
" transform="scale(0.015625)"/>
       <path id="DejaVuSans-65" d="M 3597 1894 
L 3597 1613 
L 953 1613 
Q 991 1019 1311 708 
Q 1631 397 2203 397 
Q 2534 397 2845 478 
Q 3156 559 3463 722 
L 3463 178 
Q 3153 47 2828 -22 
Q 2503 -91 2169 -91 
Q 1331 -91 842 396 
Q 353 884 353 1716 
Q 353 2575 817 3079 
Q 1281 3584 2069 3584 
Q 2775 3584 3186 3129 
Q 3597 2675 3597 1894 
z
M 3022 2063 
Q 3016 2534 2758 2815 
Q 2500 3097 2075 3097 
Q 1594 3097 1305 2825 
Q 1016 2553 972 2059 
L 3022 2063 
z
" transform="scale(0.015625)"/>
       <path id="DejaVuSans-20" transform="scale(0.015625)"/>
       <path id="DejaVuSans-66" d="M 2375 4863 
L 2375 4384 
L 1825 4384 
Q 1516 4384 1395 4259 
Q 1275 4134 1275 3809 
L 1275 3500 
L 2222 3500 
L 2222 3053 
L 1275 3053 
L 1275 0 
L 697 0 
L 697 3053 
L 147 3053 
L 147 3500 
L 697 3500 
L 697 3744 
Q 697 4328 969 4595 
Q 1241 4863 1831 4863 
L 2375 4863 
z
" transform="scale(0.015625)"/>
       <path id="DejaVuSans-72" d="M 2631 2963 
Q 2534 3019 2420 3045 
Q 2306 3072 2169 3072 
Q 1681 3072 1420 2755 
Q 1159 2438 1159 1844 
L 1159 0 
L 581 0 
L 581 3500 
L 1159 3500 
L 1159 2956 
Q 1341 3275 1631 3429 
Q 1922 3584 2338 3584 
Q 2397 3584 2469 3576 
Q 2541 3569 2628 3553 
L 2631 2963 
z
" transform="scale(0.015625)"/>
       <path id="DejaVuSans-6f" d="M 1959 3097 
Q 1497 3097 1228 2736 
Q 959 2375 959 1747 
Q 959 1119 1226 758 
Q 1494 397 1959 397 
Q 2419 397 2687 759 
Q 2956 1122 2956 1747 
Q 2956 2369 2687 2733 
Q 2419 3097 1959 3097 
z
M 1959 3584 
Q 2709 3584 3137 3096 
Q 3566 2609 3566 1747 
Q 3566 888 3137 398 
Q 2709 -91 1959 -91 
Q 1206 -91 779 398 
Q 353 888 353 1747 
Q 353 2609 779 3096 
Q 1206 3584 1959 3584 
z
" transform="scale(0.015625)"/>
       <path id="DejaVuSans-6d" d="M 3328 2828 
Q 3544 3216 3844 3400 
Q 4144 3584 4550 3584 
Q 5097 3584 5394 3201 
Q 5691 2819 5691 2113 
L 5691 0 
L 5113 0 
L 5113 2094 
Q 5113 2597 4934 2840 
Q 4756 3084 4391 3084 
Q 3944 3084 3684 2787 
Q 3425 2491 3425 1978 
L 3425 0 
L 2847 0 
L 2847 2094 
Q 2847 2600 2669 2842 
Q 2491 3084 2119 3084 
Q 1678 3084 1418 2786 
Q 1159 2488 1159 1978 
L 1159 0 
L 581 0 
L 581 3500 
L 1159 3500 
L 1159 2956 
Q 1356 3278 1631 3431 
Q 1906 3584 2284 3584 
Q 2666 3584 2933 3390 
Q 3200 3197 3328 2828 
z
" transform="scale(0.015625)"/>
       <path id="DejaVuSans-54" d="M -19 4666 
L 3928 4666 
L 3928 4134 
L 2272 4134 
L 2272 0 
L 1638 0 
L 1638 4134 
L -19 4134 
L -19 4666 
z
" transform="scale(0.015625)"/>
       <path id="DejaVuSans-4f" d="M 2522 4238 
Q 1834 4238 1429 3725 
Q 1025 3213 1025 2328 
Q 1025 1447 1429 934 
Q 1834 422 2522 422 
Q 3209 422 3611 934 
Q 4013 1447 4013 2328 
Q 4013 3213 3611 3725 
Q 3209 4238 2522 4238 
z
M 2522 4750 
Q 3503 4750 4090 4092 
Q 4678 3434 4678 2328 
Q 4678 1225 4090 567 
Q 3503 -91 2522 -91 
Q 1538 -91 948 565 
Q 359 1222 359 2328 
Q 359 3434 948 4092 
Q 1538 4750 2522 4750 
z
" transform="scale(0.015625)"/>
       <path id="DejaVuSans-46" d="M 628 4666 
L 3309 4666 
L 3309 4134 
L 1259 4134 
L 1259 2759 
L 3109 2759 
L 3109 2228 
L 1259 2228 
L 1259 0 
L 628 0 
L 628 4666 
z
" transform="scale(0.015625)"/>
       <path id="DejaVuSans-62" d="M 3116 1747 
Q 3116 2381 2855 2742 
Q 2594 3103 2138 3103 
Q 1681 3103 1420 2742 
Q 1159 2381 1159 1747 
Q 1159 1113 1420 752 
Q 1681 391 2138 391 
Q 2594 391 2855 752 
Q 3116 1113 3116 1747 
z
M 1159 2969 
Q 1341 3281 1617 3432 
Q 1894 3584 2278 3584 
Q 2916 3584 3314 3078 
Q 3713 2572 3713 1747 
Q 3713 922 3314 415 
Q 2916 -91 2278 -91 
Q 1894 -91 1617 61 
Q 1341 213 1159 525 
L 1159 0 
L 581 0 
L 581 4863 
L 1159 4863 
L 1159 2969 
z
" transform="scale(0.015625)"/>
       <path id="DejaVuSans-28" d="M 1984 4856 
Q 1566 4138 1362 3434 
Q 1159 2731 1159 2009 
Q 1159 1288 1364 580 
Q 1569 -128 1984 -844 
L 1484 -844 
Q 1016 -109 783 600 
Q 550 1309 550 2009 
Q 550 2706 781 3412 
Q 1013 4119 1484 4856 
L 1984 4856 
z
" transform="scale(0.015625)"/>
       <path id="DejaVuSans-2d" d="M 313 2009 
L 1997 2009 
L 1997 1497 
L 313 1497 
L 313 2009 
z
" transform="scale(0.015625)"/>
       <path id="DejaVuSans-5f" d="M 3263 -1063 
L 3263 -1509 
L -63 -1509 
L -63 -1063 
L 3263 -1063 
z
" transform="scale(0.015625)"/>
       <path id="DejaVuSans-29" d="M 513 4856 
L 1013 4856 
Q 1481 4119 1714 3412 
Q 1947 2706 1947 2009 
Q 1947 1309 1714 600 
Q 1481 -109 1013 -844 
L 513 -844 
Q 928 -128 1133 580 
Q 1338 1288 1338 2009 
Q 1338 2731 1133 3434 
Q 928 4138 513 4856 
z
" transform="scale(0.015625)"/>
       <path id="DejaVuSans-5b" d="M 550 4863 
L 1875 4863 
L 1875 4416 
L 1125 4416 
L 1125 -397 
L 1875 -397 
L 1875 -844 
L 550 -844 
L 550 4863 
z
" transform="scale(0.015625)"/>
       <path id="DejaVuSans-5d" d="M 1947 4863 
L 1947 -844 
L 622 -844 
L 622 -397 
L 1369 -397 
L 1369 4416 
L 622 4416 
L 622 4863 
L 1947 4863 
z
" transform="scale(0.015625)"/>
      </defs>
      <use xlink:href="#DejaVuSans-64"/>
      <use xlink:href="#DejaVuSans-69" transform="translate(63.476562 0)"/>
      <use xlink:href="#DejaVuSans-73" transform="translate(91.259766 0)"/>
      <use xlink:href="#DejaVuSans-74" transform="translate(143.359375 0)"/>
      <use xlink:href="#DejaVuSans-61" transform="translate(182.568359 0)"/>
      <use xlink:href="#DejaVuSans-6e" transform="translate(243.847656 0)"/>
      <use xlink:href="#DejaVuSans-63" transform="translate(307.226562 0)"/>
      <use xlink:href="#DejaVuSans-65" transform="translate(362.207031 0)"/>
      <use xlink:href="#DejaVuSans-20" transform="translate(423.730469 0)"/>
      <use xlink:href="#DejaVuSans-66" transform="translate(455.517578 0)"/>
      <use xlink:href="#DejaVuSans-72" transform="translate(490.722656 0)"/>
      <use xlink:href="#DejaVuSans-6f" transform="translate(529.585938 0)"/>
      <use xlink:href="#DejaVuSans-6d" transform="translate(590.767578 0)"/>
      <use xlink:href="#DejaVuSans-20" transform="translate(688.179688 0)"/>
      <use xlink:href="#DejaVuSans-54" transform="translate(719.966797 0)"/>
      <use xlink:href="#DejaVuSans-4f" transform="translate(781.050781 0)"/>
      <use xlink:href="#DejaVuSans-46" transform="translate(859.761719 0)"/>
      <use xlink:href="#DejaVuSans-20" transform="translate(917.28125 0)"/>
      <use xlink:href="#DejaVuSans-62" transform="translate(949.068359 0)"/>
      <use xlink:href="#DejaVuSans-69" transform="translate(1012.544922 0)"/>
      <use xlink:href="#DejaVuSans-6e" transform="translate(1040.328125 0)"/>
      <use xlink:href="#DejaVuSans-20" transform="translate(1103.707031 0)"/>
      <use xlink:href="#DejaVuSans-63" transform="translate(1135.494141 0)"/>
      <use xlink:href="#DejaVuSans-65" transform="translate(1190.474609 0)"/>
      <use xlink:href="#DejaVuSans-6e" transform="translate(1251.998047 0)"/>
      <use xlink:href="#DejaVuSans-74" transform="translate(1315.376953 0)"/>
      <use xlink:href="#DejaVuSans-65" transform="translate(1354.585938 0)"/>
      <use xlink:href="#DejaVuSans-72" transform="translate(1416.109375 0)"/>
      <use xlink:href="#DejaVuSans-20" transform="translate(1457.222656 0)"/>
      <use xlink:href="#DejaVuSans-28" transform="translate(1489.009766 0)"/>
      <use xlink:href="#DejaVuSans-73" transform="translate(1528.023438 0)"/>
      <use xlink:href="#DejaVuSans-20" transform="translate(1580.123047 0)"/>
      <use xlink:href="#DejaVuSans-2d" transform="translate(1611.910156 0)"/>
      <use xlink:href="#DejaVuSans-20" transform="translate(1647.994141 0)"/>
      <use xlink:href="#DejaVuSans-73" transform="translate(1679.78125 0)"/>
      <use xlink:href="#DejaVuSans-5f" transform="translate(1731.880859 0)"/>
      <use xlink:href="#DejaVuSans-63" transform="translate(1781.880859 0)"/>
      <use xlink:href="#DejaVuSans-29" transform="translate(1836.861328 0)"/>
      <use xlink:href="#DejaVuSans-20" transform="translate(1875.875 0)"/>
      <use xlink:href="#DejaVuSans-5b" transform="translate(1907.662109 0)"/>
      <use xlink:href="#DejaVuSans-6d" transform="translate(1946.675781 0)"/>
      <use xlink:href="#DejaVuSans-6d" transform="translate(2044.087891 0)"/>
      <use xlink:href="#DejaVuSans-5d" transform="translate(2141.5 0)"/>
     </g>
    </g>
   </g>
   <g id="matplotlib.axis_2">
    <g id="ytick_1">
     <g id="line2d_15">
      <path d="M 56.50625 316.667376 
L 360.59976 316.667376 
" clip-path="url(#p99d745d857)" style="fill: none; stroke-dasharray: 0.8,1.32; stroke-dashoffset: 0; stroke: #b0b0b0; stroke-width: 0.8"/>
     </g>
     <g id="line2d_16">
      <defs>
       <path id="mea2ab8dcbf" d="M 0 0 
L -3.5 0 
" style="stroke: #000000; stroke-width: 0.8"/>
      </defs>
      <g>
       <use xlink:href="#mea2ab8dcbf" x="56.50625" y="316.667376" style="stroke: #000000; stroke-width: 0.8"/>
      </g>
     </g>
     <g id="text_9">
      <!-- 0.000 -->
      <g transform="translate(20.878125 320.466595) scale(0.1 -0.1)">
       <defs>
        <path id="DejaVuSans-2e" d="M 684 794 
L 1344 794 
L 1344 0 
L 684 0 
L 684 794 
z
" transform="scale(0.015625)"/>
       </defs>
       <use xlink:href="#DejaVuSans-30"/>
       <use xlink:href="#DejaVuSans-2e" transform="translate(63.623047 0)"/>
       <use xlink:href="#DejaVuSans-30" transform="translate(95.410156 0)"/>
       <use xlink:href="#DejaVuSans-30" transform="translate(159.033203 0)"/>
       <use xlink:href="#DejaVuSans-30" transform="translate(222.65625 0)"/>
      </g>
     </g>
    </g>
    <g id="ytick_2">
     <g id="line2d_17">
      <path d="M 56.50625 264.415401 
L 360.59976 264.415401 
" clip-path="url(#p99d745d857)" style="fill: none; stroke-dasharray: 0.8,1.32; stroke-dashoffset: 0; stroke: #b0b0b0; stroke-width: 0.8"/>
     </g>
     <g id="line2d_18">
      <g>
       <use xlink:href="#mea2ab8dcbf" x="56.50625" y="264.415401" style="stroke: #000000; stroke-width: 0.8"/>
      </g>
     </g>
     <g id="text_10">
      <!-- 0.005 -->
      <g transform="translate(20.878125 268.21462) scale(0.1 -0.1)">
       <defs>
        <path id="DejaVuSans-35" d="M 691 4666 
L 3169 4666 
L 3169 4134 
L 1269 4134 
L 1269 2991 
Q 1406 3038 1543 3061 
Q 1681 3084 1819 3084 
Q 2600 3084 3056 2656 
Q 3513 2228 3513 1497 
Q 3513 744 3044 326 
Q 2575 -91 1722 -91 
Q 1428 -91 1123 -41 
Q 819 9 494 109 
L 494 744 
Q 775 591 1075 516 
Q 1375 441 1709 441 
Q 2250 441 2565 725 
Q 2881 1009 2881 1497 
Q 2881 1984 2565 2268 
Q 2250 2553 1709 2553 
Q 1456 2553 1204 2497 
Q 953 2441 691 2322 
L 691 4666 
z
" transform="scale(0.015625)"/>
       </defs>
       <use xlink:href="#DejaVuSans-30"/>
       <use xlink:href="#DejaVuSans-2e" transform="translate(63.623047 0)"/>
       <use xlink:href="#DejaVuSans-30" transform="translate(95.410156 0)"/>
       <use xlink:href="#DejaVuSans-30" transform="translate(159.033203 0)"/>
       <use xlink:href="#DejaVuSans-35" transform="translate(222.65625 0)"/>
      </g>
     </g>
    </g>
    <g id="ytick_3">
     <g id="line2d_19">
      <path d="M 56.50625 212.163426 
L 360.59976 212.163426 
" clip-path="url(#p99d745d857)" style="fill: none; stroke-dasharray: 0.8,1.32; stroke-dashoffset: 0; stroke: #b0b0b0; stroke-width: 0.8"/>
     </g>
     <g id="line2d_20">
      <g>
       <use xlink:href="#mea2ab8dcbf" x="56.50625" y="212.163426" style="stroke: #000000; stroke-width: 0.8"/>
      </g>
     </g>
     <g id="text_11">
      <!-- 0.010 -->
      <g transform="translate(20.878125 215.962645) scale(0.1 -0.1)">
       <defs>
        <path id="DejaVuSans-31" d="M 794 531 
L 1825 531 
L 1825 4091 
L 703 3866 
L 703 4441 
L 1819 4666 
L 2450 4666 
L 2450 531 
L 3481 531 
L 3481 0 
L 794 0 
L 794 531 
z
" transform="scale(0.015625)"/>
       </defs>
       <use xlink:href="#DejaVuSans-30"/>
       <use xlink:href="#DejaVuSans-2e" transform="translate(63.623047 0)"/>
       <use xlink:href="#DejaVuSans-30" transform="translate(95.410156 0)"/>
       <use xlink:href="#DejaVuSans-31" transform="translate(159.033203 0)"/>
       <use xlink:href="#DejaVuSans-30" transform="translate(222.65625 0)"/>
      </g>
     </g>
    </g>
    <g id="ytick_4">
     <g id="line2d_21">
      <path d="M 56.50625 159.911451 
L 360.59976 159.911451 
" clip-path="url(#p99d745d857)" style="fill: none; stroke-dasharray: 0.8,1.32; stroke-dashoffset: 0; stroke: #b0b0b0; stroke-width: 0.8"/>
     </g>
     <g id="line2d_22">
      <g>
       <use xlink:href="#mea2ab8dcbf" x="56.50625" y="159.911451" style="stroke: #000000; stroke-width: 0.8"/>
      </g>
     </g>
     <g id="text_12">
      <!-- 0.015 -->
      <g transform="translate(20.878125 163.710669) scale(0.1 -0.1)">
       <use xlink:href="#DejaVuSans-30"/>
       <use xlink:href="#DejaVuSans-2e" transform="translate(63.623047 0)"/>
       <use xlink:href="#DejaVuSans-30" transform="translate(95.410156 0)"/>
       <use xlink:href="#DejaVuSans-31" transform="translate(159.033203 0)"/>
       <use xlink:href="#DejaVuSans-35" transform="translate(222.65625 0)"/>
      </g>
     </g>
    </g>
    <g id="ytick_5">
     <g id="line2d_23">
      <path d="M 56.50625 107.659475 
L 360.59976 107.659475 
" clip-path="url(#p99d745d857)" style="fill: none; stroke-dasharray: 0.8,1.32; stroke-dashoffset: 0; stroke: #b0b0b0; stroke-width: 0.8"/>
     </g>
     <g id="line2d_24">
      <g>
       <use xlink:href="#mea2ab8dcbf" x="56.50625" y="107.659475" style="stroke: #000000; stroke-width: 0.8"/>
      </g>
     </g>
     <g id="text_13">
      <!-- 0.020 -->
      <g transform="translate(20.878125 111.458694) scale(0.1 -0.1)">
       <use xlink:href="#DejaVuSans-30"/>
       <use xlink:href="#DejaVuSans-2e" transform="translate(63.623047 0)"/>
       <use xlink:href="#DejaVuSans-30" transform="translate(95.410156 0)"/>
       <use xlink:href="#DejaVuSans-32" transform="translate(159.033203 0)"/>
       <use xlink:href="#DejaVuSans-30" transform="translate(222.65625 0)"/>
      </g>
     </g>
    </g>
    <g id="ytick_6">
     <g id="line2d_25">
      <path d="M 56.50625 55.4075 
L 360.59976 55.4075 
" clip-path="url(#p99d745d857)" style="fill: none; stroke-dasharray: 0.8,1.32; stroke-dashoffset: 0; stroke: #b0b0b0; stroke-width: 0.8"/>
     </g>
     <g id="line2d_26">
      <g>
       <use xlink:href="#mea2ab8dcbf" x="56.50625" y="55.4075" style="stroke: #000000; stroke-width: 0.8"/>
      </g>
     </g>
     <g id="text_14">
      <!-- 0.025 -->
      <g transform="translate(20.878125 59.206719) scale(0.1 -0.1)">
       <use xlink:href="#DejaVuSans-30"/>
       <use xlink:href="#DejaVuSans-2e" transform="translate(63.623047 0)"/>
       <use xlink:href="#DejaVuSans-30" transform="translate(95.410156 0)"/>
       <use xlink:href="#DejaVuSans-32" transform="translate(159.033203 0)"/>
       <use xlink:href="#DejaVuSans-35" transform="translate(222.65625 0)"/>
      </g>
     </g>
    </g>
    <g id="text_15">
     <!-- kernel value -->
     <g transform="translate(14.798438 208.329531) rotate(-90) scale(0.1 -0.1)">
      <defs>
       <path id="DejaVuSans-6b" d="M 581 4863 
L 1159 4863 
L 1159 1991 
L 2875 3500 
L 3609 3500 
L 1753 1863 
L 3688 0 
L 2938 0 
L 1159 1709 
L 1159 0 
L 581 0 
L 581 4863 
z
" transform="scale(0.015625)"/>
       <path id="DejaVuSans-6c" d="M 603 4863 
L 1178 4863 
L 1178 0 
L 603 0 
L 603 4863 
z
" transform="scale(0.015625)"/>
       <path id="DejaVuSans-76" d="M 191 3500 
L 800 3500 
L 1894 563 
L 2988 3500 
L 3597 3500 
L 2284 0 
L 1503 0 
L 191 3500 
z
" transform="scale(0.015625)"/>
       <path id="DejaVuSans-75" d="M 544 1381 
L 544 3500 
L 1119 3500 
L 1119 1403 
Q 1119 906 1312 657 
Q 1506 409 1894 409 
Q 2359 409 2629 706 
Q 2900 1003 2900 1516 
L 2900 3500 
L 3475 3500 
L 3475 0 
L 2900 0 
L 2900 538 
Q 2691 219 2414 64 
Q 2138 -91 1772 -91 
Q 1169 -91 856 284 
Q 544 659 544 1381 
z
M 1991 3584 
L 1991 3584 
z
" transform="scale(0.015625)"/>
      </defs>
      <use xlink:href="#DejaVuSans-6b"/>
      <use xlink:href="#DejaVuSans-65" transform="translate(54.285156 0)"/>
      <use xlink:href="#DejaVuSans-72" transform="translate(115.808594 0)"/>
      <use xlink:href="#DejaVuSans-6e" transform="translate(155.171875 0)"/>
      <use xlink:href="#DejaVuSans-65" transform="translate(218.550781 0)"/>
      <use xlink:href="#DejaVuSans-6c" transform="translate(280.074219 0)"/>
      <use xlink:href="#DejaVuSans-20" transform="translate(307.857422 0)"/>
      <use xlink:href="#DejaVuSans-76" transform="translate(339.644531 0)"/>
      <use xlink:href="#DejaVuSans-61" transform="translate(398.824219 0)"/>
      <use xlink:href="#DejaVuSans-6c" transform="translate(460.103516 0)"/>
      <use xlink:href="#DejaVuSans-75" transform="translate(487.886719 0)"/>
      <use xlink:href="#DejaVuSans-65" transform="translate(551.265625 0)"/>
     </g>
    </g>
   </g>
   <g id="line2d_27">
    <path d="M 70.328682 316.574132 
L 81.674422 316.338843 
L 88.869282 315.976863 
L 94.40379 315.480218 
L 98.831395 314.869511 
L 102.705551 314.116872 
L 106.026255 313.259729 
L 109.070234 312.259042 
L 111.837488 311.133817 
L 114.604742 309.765779 
L 117.09527 308.293647 
L 119.585798 306.560141 
L 122.076327 304.530976 
L 124.29013 302.449819 
L 126.503933 300.080003 
L 128.717736 297.394442 
L 130.931538 294.365797 
L 133.145341 290.966912 
L 135.359144 287.171324 
L 137.572947 282.953835 
L 139.78675 278.291136 
L 142.277279 272.487737 
L 144.767807 266.070231 
L 147.258335 259.02074 
L 149.748864 251.329346 
L 152.516117 242.030085 
L 155.283371 231.952312 
L 158.32735 220.006848 
L 161.648055 206.029875 
L 165.245484 189.926235 
L 169.67309 169.065986 
L 183.786084 101.669709 
L 187.106789 87.40121 
L 189.874042 76.490277 
L 192.364571 67.596562 
L 194.578374 60.534299 
L 196.515451 55.072949 
L 198.175804 50.964556 
L 199.836156 47.41396 
L 201.219783 44.898607 
L 202.60341 42.799174 
L 203.987036 41.125628 
L 205.093938 40.09886 
L 206.200839 39.352951 
L 207.307741 38.890189 
L 208.414642 38.711999 
L 209.521544 38.818927 
L 210.628445 39.210645 
L 211.735347 39.885948 
L 212.842248 40.842763 
L 213.94915 42.078157 
L 215.332777 44.008322 
L 216.716403 46.358626 
L 218.10003 49.117952 
L 219.760383 52.950663 
L 221.420735 57.327877 
L 223.357812 63.083879 
L 225.571615 70.455075 
L 227.785418 78.591126 
L 230.275947 88.545136 
L 233.319926 101.669709 
L 236.917356 118.205863 
L 242.451863 144.871542 
L 250.476899 183.510833 
L 254.627779 202.395588 
L 258.225209 217.743027 
L 261.545914 230.9028 
L 264.589893 242.030085 
L 267.357146 251.329346 
L 270.1244 259.835609 
L 272.614928 266.814233 
L 275.105457 273.16249 
L 277.595985 278.899058 
L 280.086513 284.049074 
L 282.577042 288.642792 
L 284.790845 292.286582 
L 287.004648 295.543477 
L 289.218451 298.440263 
L 291.432254 301.004221 
L 293.646057 303.262642 
L 296.136585 305.471607 
L 298.627113 307.365002 
L 301.117642 308.978237 
L 303.60817 310.344629 
L 306.375424 311.610914 
L 309.419403 312.742147 
L 312.740107 313.715884 
L 316.337537 314.52264 
L 320.211692 315.16501 
L 324.916023 315.708615 
L 330.450531 316.115403 
L 337.64539 316.408238 
L 346.777328 316.574132 
L 346.777328 316.574132 
" clip-path="url(#p99d745d857)" style="fill: none; stroke: #1f77b4; stroke-width: 1.5; stroke-linecap: square"/>
   </g>
   <g id="line2d_28">
    <path d="M 116.403457 330.565145 
L 116.403457 24.81423 
" clip-path="url(#p99d745d857)" style="fill: none; stroke-dasharray: 3.7,1.6; stroke-dashoffset: 0; stroke: #000000"/>
   </g>
   <g id="line2d_29">
    <path d="M 93.366069 330.565145 
L 93.366069 24.81423 
" clip-path="url(#p99d745d857)" style="fill: none; stroke-dasharray: 1.85,0.8; stroke-dashoffset: 0; stroke: #000000; stroke-width: 0.5"/>
   </g>
   <g id="line2d_30">
    <path d="M 139.440844 330.565145 
L 139.440844 24.81423 
" clip-path="url(#p99d745d857)" style="fill: none; stroke-dasharray: 1.85,0.8; stroke-dashoffset: 0; stroke: #000000; stroke-width: 0.5"/>
   </g>
   <g id="line2d_31">
    <path d="M 208.553005 330.565145 
L 208.553005 24.81423 
" clip-path="url(#p99d745d857)" style="fill: none; stroke-dasharray: 3.7,1.6; stroke-dashoffset: 0; stroke: #000000"/>
   </g>
   <g id="line2d_32">
    <path d="M 185.515618 330.565145 
L 185.515618 24.81423 
" clip-path="url(#p99d745d857)" style="fill: none; stroke-dasharray: 1.85,0.8; stroke-dashoffset: 0; stroke: #000000; stroke-width: 0.5"/>
   </g>
   <g id="line2d_33">
    <path d="M 231.590392 330.565145 
L 231.590392 24.81423 
" clip-path="url(#p99d745d857)" style="fill: none; stroke-dasharray: 1.85,0.8; stroke-dashoffset: 0; stroke: #000000; stroke-width: 0.5"/>
   </g>
   <g id="line2d_34">
    <path d="M 266.146473 330.565145 
L 266.146473 24.81423 
" clip-path="url(#p99d745d857)" style="fill: none; stroke-dasharray: 3.7,1.6; stroke-dashoffset: 0; stroke: #000000"/>
   </g>
   <g id="line2d_35">
    <path d="M 243.109086 330.565145 
L 243.109086 24.81423 
" clip-path="url(#p99d745d857)" style="fill: none; stroke-dasharray: 1.85,0.8; stroke-dashoffset: 0; stroke: #000000; stroke-width: 0.5"/>
   </g>
   <g id="line2d_36">
    <path d="M 289.18386 330.565145 
L 289.18386 24.81423 
" clip-path="url(#p99d745d857)" style="fill: none; stroke-dasharray: 1.85,0.8; stroke-dashoffset: 0; stroke: #000000; stroke-width: 0.5"/>
   </g>
   <g id="patch_3">
    <path d="M 56.50625 330.565145 
L 56.50625 24.81423 
" style="fill: none; stroke: #000000; stroke-width: 0.8; stroke-linejoin: miter; stroke-linecap: square"/>
   </g>
   <g id="patch_4">
    <path d="M 360.59976 330.565145 
L 360.59976 24.81423 
" style="fill: none; stroke: #000000; stroke-width: 0.8; stroke-linejoin: miter; stroke-linecap: square"/>
   </g>
   <g id="patch_5">
    <path d="M 56.50625 330.565145 
L 360.59976 330.565145 
" style="fill: none; stroke: #000000; stroke-width: 0.8; stroke-linejoin: miter; stroke-linecap: square"/>
   </g>
   <g id="patch_6">
    <path d="M 56.50625 24.81423 
L 360.59976 24.81423 
" style="fill: none; stroke: #000000; stroke-width: 0.8; stroke-linejoin: miter; stroke-linecap: square"/>
   </g>
   <g id="legend_1">
    <g id="patch_7">
     <path d="M 241.759135 47.492355 
L 353.59976 47.492355 
Q 355.59976 47.492355 355.59976 45.492355 
L 355.59976 31.81423 
Q 355.59976 29.81423 353.59976 29.81423 
L 241.759135 29.81423 
Q 239.759135 29.81423 239.759135 31.81423 
L 239.759135 45.492355 
Q 239.759135 47.492355 241.759135 47.492355 
z
" style="fill: #ffffff; opacity: 0.8; stroke: #cccccc; stroke-linejoin: miter"/>
    </g>
    <g id="line2d_37">
     <path d="M 243.759135 37.912667 
L 253.759135 37.912667 
L 263.759135 37.912667 
" style="fill: none; stroke: #1f77b4; stroke-width: 1.5; stroke-linecap: square"/>
    </g>
    <g id="text_16">
     <!-- Gaussian kernel -->
     <g transform="translate(271.759135 41.412667) scale(0.1 -0.1)">
      <defs>
       <path id="DejaVuSans-47" d="M 3809 666 
L 3809 1919 
L 2778 1919 
L 2778 2438 
L 4434 2438 
L 4434 434 
Q 4069 175 3628 42 
Q 3188 -91 2688 -91 
Q 1594 -91 976 548 
Q 359 1188 359 2328 
Q 359 3472 976 4111 
Q 1594 4750 2688 4750 
Q 3144 4750 3555 4637 
Q 3966 4525 4313 4306 
L 4313 3634 
Q 3963 3931 3569 4081 
Q 3175 4231 2741 4231 
Q 1884 4231 1454 3753 
Q 1025 3275 1025 2328 
Q 1025 1384 1454 906 
Q 1884 428 2741 428 
Q 3075 428 3337 486 
Q 3600 544 3809 666 
z
" transform="scale(0.015625)"/>
      </defs>
      <use xlink:href="#DejaVuSans-47"/>
      <use xlink:href="#DejaVuSans-61" transform="translate(77.490234 0)"/>
      <use xlink:href="#DejaVuSans-75" transform="translate(138.769531 0)"/>
      <use xlink:href="#DejaVuSans-73" transform="translate(202.148438 0)"/>
      <use xlink:href="#DejaVuSans-73" transform="translate(254.248047 0)"/>
      <use xlink:href="#DejaVuSans-69" transform="translate(306.347656 0)"/>
      <use xlink:href="#DejaVuSans-61" transform="translate(334.130859 0)"/>
      <use xlink:href="#DejaVuSans-6e" transform="translate(395.410156 0)"/>
      <use xlink:href="#DejaVuSans-20" transform="translate(458.789062 0)"/>
      <use xlink:href="#DejaVuSans-6b" transform="translate(490.576172 0)"/>
      <use xlink:href="#DejaVuSans-65" transform="translate(544.861328 0)"/>
      <use xlink:href="#DejaVuSans-72" transform="translate(606.384766 0)"/>
      <use xlink:href="#DejaVuSans-6e" transform="translate(645.748047 0)"/>
      <use xlink:href="#DejaVuSans-65" transform="translate(709.126953 0)"/>
      <use xlink:href="#DejaVuSans-6c" transform="translate(770.650391 0)"/>
     </g>
    </g>
   </g>
  </g>
  <g id="axes_2">
   <g id="patch_8">
    <path d="M 417.10601 330.565145 
L 721.19952 330.565145 
L 721.19952 24.81423 
L 417.10601 24.81423 
z
" style="fill: #ffffff"/>
   </g>
   <g id="matplotlib.axis_3">
    <g id="xtick_8">
     <g id="line2d_38">
      <path d="M 430.928442 330.565145 
L 430.928442 24.81423 
" clip-path="url(#pf6dcbd5e53)" style="fill: none; stroke-dasharray: 0.8,1.32; stroke-dashoffset: 0; stroke: #b0b0b0; stroke-width: 0.8"/>
     </g>
     <g id="line2d_39">
      <g>
       <use xlink:href="#m6874453075" x="430.928442" y="330.565145" style="stroke: #000000; stroke-width: 0.8"/>
      </g>
     </g>
     <g id="text_17">
      <!-- −60 -->
      <g transform="translate(420.376099 345.163582) scale(0.1 -0.1)">
       <use xlink:href="#DejaVuSans-2212"/>
       <use xlink:href="#DejaVuSans-36" transform="translate(83.789062 0)"/>
       <use xlink:href="#DejaVuSans-30" transform="translate(147.412109 0)"/>
      </g>
     </g>
    </g>
    <g id="xtick_9">
     <g id="line2d_40">
      <path d="M 477.003217 330.565145 
L 477.003217 24.81423 
" clip-path="url(#pf6dcbd5e53)" style="fill: none; stroke-dasharray: 0.8,1.32; stroke-dashoffset: 0; stroke: #b0b0b0; stroke-width: 0.8"/>
     </g>
     <g id="line2d_41">
      <g>
       <use xlink:href="#m6874453075" x="477.003217" y="330.565145" style="stroke: #000000; stroke-width: 0.8"/>
      </g>
     </g>
     <g id="text_18">
      <!-- −40 -->
      <g transform="translate(466.450873 345.163582) scale(0.1 -0.1)">
       <use xlink:href="#DejaVuSans-2212"/>
       <use xlink:href="#DejaVuSans-34" transform="translate(83.789062 0)"/>
       <use xlink:href="#DejaVuSans-30" transform="translate(147.412109 0)"/>
      </g>
     </g>
    </g>
    <g id="xtick_10">
     <g id="line2d_42">
      <path d="M 523.077991 330.565145 
L 523.077991 24.81423 
" clip-path="url(#pf6dcbd5e53)" style="fill: none; stroke-dasharray: 0.8,1.32; stroke-dashoffset: 0; stroke: #b0b0b0; stroke-width: 0.8"/>
     </g>
     <g id="line2d_43">
      <g>
       <use xlink:href="#m6874453075" x="523.077991" y="330.565145" style="stroke: #000000; stroke-width: 0.8"/>
      </g>
     </g>
     <g id="text_19">
      <!-- −20 -->
      <g transform="translate(512.525647 345.163582) scale(0.1 -0.1)">
       <use xlink:href="#DejaVuSans-2212"/>
       <use xlink:href="#DejaVuSans-32" transform="translate(83.789062 0)"/>
       <use xlink:href="#DejaVuSans-30" transform="translate(147.412109 0)"/>
      </g>
     </g>
    </g>
    <g id="xtick_11">
     <g id="line2d_44">
      <path d="M 569.152765 330.565145 
L 569.152765 24.81423 
" clip-path="url(#pf6dcbd5e53)" style="fill: none; stroke-dasharray: 0.8,1.32; stroke-dashoffset: 0; stroke: #b0b0b0; stroke-width: 0.8"/>
     </g>
     <g id="line2d_45">
      <g>
       <use xlink:href="#m6874453075" x="569.152765" y="330.565145" style="stroke: #000000; stroke-width: 0.8"/>
      </g>
     </g>
     <g id="text_20">
      <!-- 0 -->
      <g transform="translate(565.971515 345.163582) scale(0.1 -0.1)">
       <use xlink:href="#DejaVuSans-30"/>
      </g>
     </g>
    </g>
    <g id="xtick_12">
     <g id="line2d_46">
      <path d="M 615.227539 330.565145 
L 615.227539 24.81423 
" clip-path="url(#pf6dcbd5e53)" style="fill: none; stroke-dasharray: 0.8,1.32; stroke-dashoffset: 0; stroke: #b0b0b0; stroke-width: 0.8"/>
     </g>
     <g id="line2d_47">
      <g>
       <use xlink:href="#m6874453075" x="615.227539" y="330.565145" style="stroke: #000000; stroke-width: 0.8"/>
      </g>
     </g>
     <g id="text_21">
      <!-- 20 -->
      <g transform="translate(608.865039 345.163582) scale(0.1 -0.1)">
       <use xlink:href="#DejaVuSans-32"/>
       <use xlink:href="#DejaVuSans-30" transform="translate(63.623047 0)"/>
      </g>
     </g>
    </g>
    <g id="xtick_13">
     <g id="line2d_48">
      <path d="M 661.302313 330.565145 
L 661.302313 24.81423 
" clip-path="url(#pf6dcbd5e53)" style="fill: none; stroke-dasharray: 0.8,1.32; stroke-dashoffset: 0; stroke: #b0b0b0; stroke-width: 0.8"/>
     </g>
     <g id="line2d_49">
      <g>
       <use xlink:href="#m6874453075" x="661.302313" y="330.565145" style="stroke: #000000; stroke-width: 0.8"/>
      </g>
     </g>
     <g id="text_22">
      <!-- 40 -->
      <g transform="translate(654.939813 345.163582) scale(0.1 -0.1)">
       <use xlink:href="#DejaVuSans-34"/>
       <use xlink:href="#DejaVuSans-30" transform="translate(63.623047 0)"/>
      </g>
     </g>
    </g>
    <g id="xtick_14">
     <g id="line2d_50">
      <path d="M 707.377088 330.565145 
L 707.377088 24.81423 
" clip-path="url(#pf6dcbd5e53)" style="fill: none; stroke-dasharray: 0.8,1.32; stroke-dashoffset: 0; stroke: #b0b0b0; stroke-width: 0.8"/>
     </g>
     <g id="line2d_51">
      <g>
       <use xlink:href="#m6874453075" x="707.377088" y="330.565145" style="stroke: #000000; stroke-width: 0.8"/>
      </g>
     </g>
     <g id="text_23">
      <!-- 60 -->
      <g transform="translate(701.014588 345.163582) scale(0.1 -0.1)">
       <use xlink:href="#DejaVuSans-36"/>
       <use xlink:href="#DejaVuSans-30" transform="translate(63.623047 0)"/>
      </g>
     </g>
    </g>
    <g id="text_24">
     <!-- distance from TOF bin center (s - s_c) [mm] -->
     <g transform="translate(460.130109 358.841707) scale(0.1 -0.1)">
      <use xlink:href="#DejaVuSans-64"/>
      <use xlink:href="#DejaVuSans-69" transform="translate(63.476562 0)"/>
      <use xlink:href="#DejaVuSans-73" transform="translate(91.259766 0)"/>
      <use xlink:href="#DejaVuSans-74" transform="translate(143.359375 0)"/>
      <use xlink:href="#DejaVuSans-61" transform="translate(182.568359 0)"/>
      <use xlink:href="#DejaVuSans-6e" transform="translate(243.847656 0)"/>
      <use xlink:href="#DejaVuSans-63" transform="translate(307.226562 0)"/>
      <use xlink:href="#DejaVuSans-65" transform="translate(362.207031 0)"/>
      <use xlink:href="#DejaVuSans-20" transform="translate(423.730469 0)"/>
      <use xlink:href="#DejaVuSans-66" transform="translate(455.517578 0)"/>
      <use xlink:href="#DejaVuSans-72" transform="translate(490.722656 0)"/>
      <use xlink:href="#DejaVuSans-6f" transform="translate(529.585938 0)"/>
      <use xlink:href="#DejaVuSans-6d" transform="translate(590.767578 0)"/>
      <use xlink:href="#DejaVuSans-20" transform="translate(688.179688 0)"/>
      <use xlink:href="#DejaVuSans-54" transform="translate(719.966797 0)"/>
      <use xlink:href="#DejaVuSans-4f" transform="translate(781.050781 0)"/>
      <use xlink:href="#DejaVuSans-46" transform="translate(859.761719 0)"/>
      <use xlink:href="#DejaVuSans-20" transform="translate(917.28125 0)"/>
      <use xlink:href="#DejaVuSans-62" transform="translate(949.068359 0)"/>
      <use xlink:href="#DejaVuSans-69" transform="translate(1012.544922 0)"/>
      <use xlink:href="#DejaVuSans-6e" transform="translate(1040.328125 0)"/>
      <use xlink:href="#DejaVuSans-20" transform="translate(1103.707031 0)"/>
      <use xlink:href="#DejaVuSans-63" transform="translate(1135.494141 0)"/>
      <use xlink:href="#DejaVuSans-65" transform="translate(1190.474609 0)"/>
      <use xlink:href="#DejaVuSans-6e" transform="translate(1251.998047 0)"/>
      <use xlink:href="#DejaVuSans-74" transform="translate(1315.376953 0)"/>
      <use xlink:href="#DejaVuSans-65" transform="translate(1354.585938 0)"/>
      <use xlink:href="#DejaVuSans-72" transform="translate(1416.109375 0)"/>
      <use xlink:href="#DejaVuSans-20" transform="translate(1457.222656 0)"/>
      <use xlink:href="#DejaVuSans-28" transform="translate(1489.009766 0)"/>
      <use xlink:href="#DejaVuSans-73" transform="translate(1528.023438 0)"/>
      <use xlink:href="#DejaVuSans-20" transform="translate(1580.123047 0)"/>
      <use xlink:href="#DejaVuSans-2d" transform="translate(1611.910156 0)"/>
      <use xlink:href="#DejaVuSans-20" transform="translate(1647.994141 0)"/>
      <use xlink:href="#DejaVuSans-73" transform="translate(1679.78125 0)"/>
      <use xlink:href="#DejaVuSans-5f" transform="translate(1731.880859 0)"/>
      <use xlink:href="#DejaVuSans-63" transform="translate(1781.880859 0)"/>
      <use xlink:href="#DejaVuSans-29" transform="translate(1836.861328 0)"/>
      <use xlink:href="#DejaVuSans-20" transform="translate(1875.875 0)"/>
      <use xlink:href="#DejaVuSans-5b" transform="translate(1907.662109 0)"/>
      <use xlink:href="#DejaVuSans-6d" transform="translate(1946.675781 0)"/>
      <use xlink:href="#DejaVuSans-6d" transform="translate(2044.087891 0)"/>
      <use xlink:href="#DejaVuSans-5d" transform="translate(2141.5 0)"/>
     </g>
    </g>
   </g>
   <g id="matplotlib.axis_4">
    <g id="ytick_7">
     <g id="line2d_52">
      <path d="M 417.10601 316.760652 
L 721.19952 316.760652 
" clip-path="url(#pf6dcbd5e53)" style="fill: none; stroke-dasharray: 0.8,1.32; stroke-dashoffset: 0; stroke: #b0b0b0; stroke-width: 0.8"/>
     </g>
     <g id="line2d_53">
      <g>
       <use xlink:href="#mea2ab8dcbf" x="417.10601" y="316.760652" style="stroke: #000000; stroke-width: 0.8"/>
      </g>
     </g>
     <g id="text_25">
      <!-- 0.000 -->
      <g transform="translate(381.477885 320.559871) scale(0.1 -0.1)">
       <use xlink:href="#DejaVuSans-30"/>
       <use xlink:href="#DejaVuSans-2e" transform="translate(63.623047 0)"/>
       <use xlink:href="#DejaVuSans-30" transform="translate(95.410156 0)"/>
       <use xlink:href="#DejaVuSans-30" transform="translate(159.033203 0)"/>
       <use xlink:href="#DejaVuSans-30" transform="translate(222.65625 0)"/>
      </g>
     </g>
    </g>
    <g id="ytick_8">
     <g id="line2d_54">
      <path d="M 417.10601 264.491142 
L 721.19952 264.491142 
" clip-path="url(#pf6dcbd5e53)" style="fill: none; stroke-dasharray: 0.8,1.32; stroke-dashoffset: 0; stroke: #b0b0b0; stroke-width: 0.8"/>
     </g>
     <g id="line2d_55">
      <g>
       <use xlink:href="#mea2ab8dcbf" x="417.10601" y="264.491142" style="stroke: #000000; stroke-width: 0.8"/>
      </g>
     </g>
     <g id="text_26">
      <!-- 0.005 -->
      <g transform="translate(381.477885 268.290361) scale(0.1 -0.1)">
       <use xlink:href="#DejaVuSans-30"/>
       <use xlink:href="#DejaVuSans-2e" transform="translate(63.623047 0)"/>
       <use xlink:href="#DejaVuSans-30" transform="translate(95.410156 0)"/>
       <use xlink:href="#DejaVuSans-30" transform="translate(159.033203 0)"/>
       <use xlink:href="#DejaVuSans-35" transform="translate(222.65625 0)"/>
      </g>
     </g>
    </g>
    <g id="ytick_9">
     <g id="line2d_56">
      <path d="M 417.10601 212.221632 
L 721.19952 212.221632 
" clip-path="url(#pf6dcbd5e53)" style="fill: none; stroke-dasharray: 0.8,1.32; stroke-dashoffset: 0; stroke: #b0b0b0; stroke-width: 0.8"/>
     </g>
     <g id="line2d_57">
      <g>
       <use xlink:href="#mea2ab8dcbf" x="417.10601" y="212.221632" style="stroke: #000000; stroke-width: 0.8"/>
      </g>
     </g>
     <g id="text_27">
      <!-- 0.010 -->
      <g transform="translate(381.477885 216.020851) scale(0.1 -0.1)">
       <use xlink:href="#DejaVuSans-30"/>
       <use xlink:href="#DejaVuSans-2e" transform="translate(63.623047 0)"/>
       <use xlink:href="#DejaVuSans-30" transform="translate(95.410156 0)"/>
       <use xlink:href="#DejaVuSans-31" transform="translate(159.033203 0)"/>
       <use xlink:href="#DejaVuSans-30" transform="translate(222.65625 0)"/>
      </g>
     </g>
    </g>
    <g id="ytick_10">
     <g id="line2d_58">
      <path d="M 417.10601 159.952122 
L 721.19952 159.952122 
" clip-path="url(#pf6dcbd5e53)" style="fill: none; stroke-dasharray: 0.8,1.32; stroke-dashoffset: 0; stroke: #b0b0b0; stroke-width: 0.8"/>
     </g>
     <g id="line2d_59">
      <g>
       <use xlink:href="#mea2ab8dcbf" x="417.10601" y="159.952122" style="stroke: #000000; stroke-width: 0.8"/>
      </g>
     </g>
     <g id="text_28">
      <!-- 0.015 -->
      <g transform="translate(381.477885 163.751341) scale(0.1 -0.1)">
       <use xlink:href="#DejaVuSans-30"/>
       <use xlink:href="#DejaVuSans-2e" transform="translate(63.623047 0)"/>
       <use xlink:href="#DejaVuSans-30" transform="translate(95.410156 0)"/>
       <use xlink:href="#DejaVuSans-31" transform="translate(159.033203 0)"/>
       <use xlink:href="#DejaVuSans-35" transform="translate(222.65625 0)"/>
      </g>
     </g>
    </g>
    <g id="ytick_11">
     <g id="line2d_60">
      <path d="M 417.10601 107.682613 
L 721.19952 107.682613 
" clip-path="url(#pf6dcbd5e53)" style="fill: none; stroke-dasharray: 0.8,1.32; stroke-dashoffset: 0; stroke: #b0b0b0; stroke-width: 0.8"/>
     </g>
     <g id="line2d_61">
      <g>
       <use xlink:href="#mea2ab8dcbf" x="417.10601" y="107.682613" style="stroke: #000000; stroke-width: 0.8"/>
      </g>
     </g>
     <g id="text_29">
      <!-- 0.020 -->
      <g transform="translate(381.477885 111.481831) scale(0.1 -0.1)">
       <use xlink:href="#DejaVuSans-30"/>
       <use xlink:href="#DejaVuSans-2e" transform="translate(63.623047 0)"/>
       <use xlink:href="#DejaVuSans-30" transform="translate(95.410156 0)"/>
       <use xlink:href="#DejaVuSans-32" transform="translate(159.033203 0)"/>
       <use xlink:href="#DejaVuSans-30" transform="translate(222.65625 0)"/>
      </g>
     </g>
    </g>
    <g id="ytick_12">
     <g id="line2d_62">
      <path d="M 417.10601 55.413103 
L 721.19952 55.413103 
" clip-path="url(#pf6dcbd5e53)" style="fill: none; stroke-dasharray: 0.8,1.32; stroke-dashoffset: 0; stroke: #b0b0b0; stroke-width: 0.8"/>
     </g>
     <g id="line2d_63">
      <g>
       <use xlink:href="#mea2ab8dcbf" x="417.10601" y="55.413103" style="stroke: #000000; stroke-width: 0.8"/>
      </g>
     </g>
     <g id="text_30">
      <!-- 0.025 -->
      <g transform="translate(381.477885 59.212322) scale(0.1 -0.1)">
       <use xlink:href="#DejaVuSans-30"/>
       <use xlink:href="#DejaVuSans-2e" transform="translate(63.623047 0)"/>
       <use xlink:href="#DejaVuSans-30" transform="translate(95.410156 0)"/>
       <use xlink:href="#DejaVuSans-32" transform="translate(159.033203 0)"/>
       <use xlink:href="#DejaVuSans-35" transform="translate(222.65625 0)"/>
      </g>
     </g>
    </g>
    <g id="text_31">
     <!-- (normalized ) kernel value -->
     <g transform="translate(375.398197 243.192812) rotate(-90) scale(0.1 -0.1)">
      <defs>
       <path id="DejaVuSans-7a" d="M 353 3500 
L 3084 3500 
L 3084 2975 
L 922 459 
L 3084 459 
L 3084 0 
L 275 0 
L 275 525 
L 2438 3041 
L 353 3041 
L 353 3500 
z
" transform="scale(0.015625)"/>
      </defs>
      <use xlink:href="#DejaVuSans-28"/>
      <use xlink:href="#DejaVuSans-6e" transform="translate(39.013672 0)"/>
      <use xlink:href="#DejaVuSans-6f" transform="translate(102.392578 0)"/>
      <use xlink:href="#DejaVuSans-72" transform="translate(163.574219 0)"/>
      <use xlink:href="#DejaVuSans-6d" transform="translate(202.9375 0)"/>
      <use xlink:href="#DejaVuSans-61" transform="translate(300.349609 0)"/>
      <use xlink:href="#DejaVuSans-6c" transform="translate(361.628906 0)"/>
      <use xlink:href="#DejaVuSans-69" transform="translate(389.412109 0)"/>
      <use xlink:href="#DejaVuSans-7a" transform="translate(417.195312 0)"/>
      <use xlink:href="#DejaVuSans-65" transform="translate(469.685547 0)"/>
      <use xlink:href="#DejaVuSans-64" transform="translate(531.208984 0)"/>
      <use xlink:href="#DejaVuSans-20" transform="translate(594.685547 0)"/>
      <use xlink:href="#DejaVuSans-29" transform="translate(626.472656 0)"/>
      <use xlink:href="#DejaVuSans-20" transform="translate(665.486328 0)"/>
      <use xlink:href="#DejaVuSans-6b" transform="translate(697.273438 0)"/>
      <use xlink:href="#DejaVuSans-65" transform="translate(751.558594 0)"/>
      <use xlink:href="#DejaVuSans-72" transform="translate(813.082031 0)"/>
      <use xlink:href="#DejaVuSans-6e" transform="translate(852.445312 0)"/>
      <use xlink:href="#DejaVuSans-65" transform="translate(915.824219 0)"/>
      <use xlink:href="#DejaVuSans-6c" transform="translate(977.347656 0)"/>
      <use xlink:href="#DejaVuSans-20" transform="translate(1005.130859 0)"/>
      <use xlink:href="#DejaVuSans-76" transform="translate(1036.917969 0)"/>
      <use xlink:href="#DejaVuSans-61" transform="translate(1096.097656 0)"/>
      <use xlink:href="#DejaVuSans-6c" transform="translate(1157.376953 0)"/>
      <use xlink:href="#DejaVuSans-75" transform="translate(1185.160156 0)"/>
      <use xlink:href="#DejaVuSans-65" transform="translate(1248.539062 0)"/>
     </g>
    </g>
   </g>
   <g id="line2d_64">
    <path d="M 430.928442 316.667376 
L 442.274182 316.432009 
L 449.469042 316.069907 
L 455.00355 315.573095 
L 459.431155 314.962183 
L 463.305311 314.209292 
L 466.626015 313.351861 
L 469.669994 312.350839 
L 472.437248 311.225236 
L 475.204502 309.856739 
L 477.69503 308.384112 
L 480.185558 306.650025 
L 482.676087 304.620179 
L 484.88989 302.538324 
L 487.103693 300.167712 
L 489.317496 297.48125 
L 491.531298 294.451588 
L 493.745101 291.051563 
L 495.958904 287.254702 
L 498.172707 283.035797 
L 500.38651 278.371533 
L 502.877039 272.566187 
L 505.367567 266.146527 
L 507.858095 259.09467 
L 510.348624 251.400695 
L 513.115877 242.098314 
L 515.883131 232.017159 
L 518.92711 220.067686 
L 522.247815 206.086023 
L 525.845244 189.976979 
L 530.27285 169.10973 
L 544.385844 101.690836 
L 547.706549 87.417549 
L 550.473802 76.502954 
L 552.964331 67.606255 
L 555.178134 60.541622 
L 557.115211 55.078439 
L 558.775564 50.968667 
L 560.435916 47.41688 
L 561.819543 44.900683 
L 563.20317 42.800546 
L 564.586796 41.126438 
L 565.693698 40.099325 
L 566.800599 39.353166 
L 567.907501 38.890249 
L 569.014402 38.711999 
L 570.121304 38.818963 
L 571.228205 39.210812 
L 572.335107 39.886342 
L 573.442008 40.843478 
L 574.54891 42.079287 
L 575.932537 44.010099 
L 577.316163 46.361192 
L 578.69979 49.121444 
L 580.360143 52.955441 
L 582.020495 57.334124 
L 583.957572 63.092058 
L 586.171375 70.465727 
L 588.385178 78.604508 
L 590.875707 88.561859 
L 593.919686 101.690836 
L 597.517116 118.232539 
L 603.051623 144.907167 
L 611.076659 183.559424 
L 615.227539 202.450517 
L 618.824969 217.803106 
L 622.145674 230.967295 
L 625.189653 242.098314 
L 627.956906 251.400695 
L 630.72416 259.909814 
L 633.214688 266.890779 
L 635.705217 273.241166 
L 638.195745 278.97966 
L 640.686273 284.131403 
L 643.176802 288.726663 
L 645.390605 292.371676 
L 647.604408 295.629664 
L 649.818211 298.527422 
L 652.032014 301.09224 
L 654.245817 303.35142 
L 656.736345 305.561126 
L 659.226873 307.455156 
L 661.717402 309.068932 
L 664.20793 310.435783 
L 666.975184 311.702493 
L 670.019163 312.834105 
L 673.339867 313.808169 
L 676.937297 314.615196 
L 680.811452 315.257782 
L 685.515783 315.801569 
L 691.050291 316.208494 
L 698.24515 316.501426 
L 707.377088 316.667376 
L 707.377088 316.667376 
" clip-path="url(#pf6dcbd5e53)" style="fill: none; stroke-dasharray: 5.55,2.4; stroke-dashoffset: 0; stroke: #1f77b4; stroke-width: 1.5"/>
   </g>
   <g id="line2d_65">
    <path d="M 430.928442 316.537147 
L 439.506929 316.231336 
L 445.871612 315.794034 
L 450.852669 315.245983 
L 455.280275 314.539182 
L 459.15443 313.693508 
L 462.475135 312.753959 
L 465.519114 311.680126 
L 468.563093 310.364448 
L 471.330346 308.923608 
L 474.0976 307.214575 
L 476.588128 305.417114 
L 479.078657 303.345063 
L 481.569185 300.969534 
L 484.059713 298.261052 
L 486.550242 295.190034 
L 489.04077 291.727352 
L 491.531298 287.844976 
L 494.021827 283.516683 
L 496.512355 278.718842 
L 499.002883 273.431243 
L 501.493412 267.637958 
L 504.260666 260.594995 
L 507.027919 252.90863 
L 509.795173 244.58351 
L 512.839152 234.708236 
L 516.159856 223.124681 
L 519.757286 209.712996 
L 523.908167 193.306211 
L 529.165949 171.529846 
L 540.234964 125.378988 
L 544.109119 110.367698 
L 547.153098 99.418027 
L 549.920352 90.283235 
L 552.41088 82.844674 
L 554.624683 76.93205 
L 556.561761 72.346721 
L 558.498838 68.347425 
L 560.15919 65.409567 
L 561.819543 62.942099 
L 563.20317 61.255614 
L 564.586796 59.912615 
L 565.970423 58.918568 
L 567.077325 58.377348 
L 568.184226 58.063496 
L 569.291128 57.977835 
L 570.398029 58.120588 
L 571.504931 58.491382 
L 572.611832 59.089246 
L 573.718734 59.912615 
L 575.10236 61.255614 
L 576.485987 62.942099 
L 577.869614 64.965237 
L 579.529966 67.825804 
L 581.190319 71.142825 
L 583.127396 75.564136 
L 585.064474 80.546726 
L 587.278277 86.87962 
L 589.768805 94.743874 
L 592.536059 104.288569 
L 595.580038 115.608011 
L 599.454193 130.96292 
L 604.711975 152.832676 
L 614.674089 194.426037 
L 619.101694 211.829743 
L 622.699124 225.111096 
L 626.019829 236.558171 
L 629.063808 246.299022 
L 632.107787 255.28204 
L 634.875041 262.775363 
L 637.642294 269.62602 
L 640.409548 275.84288 
L 642.900076 280.910567 
L 645.390605 285.497002 
L 647.881133 289.62402 
L 650.371661 293.316503 
L 652.86219 296.601571 
L 655.352718 299.507825 
L 657.843246 302.06467 
L 660.333775 304.301705 
L 662.824303 306.2482 
L 665.314831 307.932651 
L 668.082085 309.530166 
L 670.849339 310.873396 
L 673.893318 312.096533 
L 677.214022 313.172405 
L 680.811452 314.085709 
L 684.685607 314.832917 
L 689.113213 315.453779 
L 694.370995 315.953197 
L 700.735679 316.322757 
L 707.377088 316.537147 
L 707.377088 316.537147 
" clip-path="url(#pf6dcbd5e53)" style="fill: none; stroke: #ff7f0e; stroke-width: 1.5; stroke-linecap: square"/>
   </g>
   <g id="line2d_66">
    <path d="M 477.003217 330.565145 
L 477.003217 24.81423 
" clip-path="url(#pf6dcbd5e53)" style="fill: none; stroke-dasharray: 3.7,1.6; stroke-dashoffset: 0; stroke: #000000"/>
   </g>
   <g id="line2d_67">
    <defs>
     <path id="md76cf5d002" d="M 0 3 
C 0.795609 3 1.55874 2.683901 2.12132 2.12132 
C 2.683901 1.55874 3 0.795609 3 0 
C 3 -0.795609 2.683901 -1.55874 2.12132 -2.12132 
C 1.55874 -2.683901 0.795609 -3 0 -3 
C -0.795609 -3 -1.55874 -2.683901 -2.12132 -2.12132 
C -2.683901 -1.55874 -3 -0.795609 -3 0 
C -3 0.795609 -2.683901 1.55874 -2.12132 2.12132 
C -1.55874 2.683901 -0.795609 3 0 3 
z
" style="stroke: #2ca02c"/>
    </defs>
    <g clip-path="url(#pf6dcbd5e53)">
     <use xlink:href="#md76cf5d002" x="477.003217" y="305.09161" style="fill: #2ca02c; stroke: #2ca02c"/>
    </g>
   </g>
   <g id="line2d_68">
    <path d="M 569.152765 330.565145 
L 569.152765 24.81423 
" clip-path="url(#pf6dcbd5e53)" style="fill: none; stroke-dasharray: 3.7,1.6; stroke-dashoffset: 0; stroke: #000000"/>
   </g>
   <g id="line2d_69">
    <defs>
     <path id="m3ed413537a" d="M 0 3 
C 0.795609 3 1.55874 2.683901 2.12132 2.12132 
C 2.683901 1.55874 3 0.795609 3 0 
C 3 -0.795609 2.683901 -1.55874 2.12132 -2.12132 
C 1.55874 -2.683901 0.795609 -3 0 -3 
C -0.795609 -3 -1.55874 -2.683901 -2.12132 -2.12132 
C -2.683901 -1.55874 -3 -0.795609 -3 0 
C -3 0.795609 -2.683901 1.55874 -2.12132 2.12132 
C -1.55874 2.683901 -0.795609 3 0 3 
z
" style="stroke: #d62728"/>
    </defs>
    <g clip-path="url(#pf6dcbd5e53)">
     <use xlink:href="#m3ed413537a" x="569.152765" y="57.97605" style="fill: #d62728; stroke: #d62728"/>
    </g>
   </g>
   <g id="line2d_70">
    <path d="M 626.746233 330.565145 
L 626.746233 24.81423 
" clip-path="url(#pf6dcbd5e53)" style="fill: none; stroke-dasharray: 3.7,1.6; stroke-dashoffset: 0; stroke: #000000"/>
   </g>
   <g id="line2d_71">
    <defs>
     <path id="mbdde905d93" d="M 0 3 
C 0.795609 3 1.55874 2.683901 2.12132 2.12132 
C 2.683901 1.55874 3 0.795609 3 0 
C 3 -0.795609 2.683901 -1.55874 2.12132 -2.12132 
C 1.55874 -2.683901 0.795609 -3 0 -3 
C -0.795609 -3 -1.55874 -2.683901 -2.12132 -2.12132 
C -2.683901 -1.55874 -3 -0.795609 -3 0 
C -3 0.795609 -2.683901 1.55874 -2.12132 2.12132 
C -1.55874 2.683901 -0.795609 3 0 3 
z
" style="stroke: #9467bd"/>
    </defs>
    <g clip-path="url(#pf6dcbd5e53)">
     <use xlink:href="#mbdde905d93" x="626.746233" y="238.949905" style="fill: #9467bd; stroke: #9467bd"/>
    </g>
   </g>
   <g id="patch_9">
    <path d="M 417.10601 330.565145 
L 417.10601 24.81423 
" style="fill: none; stroke: #000000; stroke-width: 0.8; stroke-linejoin: miter; stroke-linecap: square"/>
   </g>
   <g id="patch_10">
    <path d="M 721.19952 330.565145 
L 721.19952 24.81423 
" style="fill: none; stroke: #000000; stroke-width: 0.8; stroke-linejoin: miter; stroke-linecap: square"/>
   </g>
   <g id="patch_11">
    <path d="M 417.10601 330.565145 
L 721.19952 330.565145 
" style="fill: none; stroke: #000000; stroke-width: 0.8; stroke-linejoin: miter; stroke-linecap: square"/>
   </g>
   <g id="patch_12">
    <path d="M 417.10601 24.81423 
L 721.19952 24.81423 
" style="fill: none; stroke: #000000; stroke-width: 0.8; stroke-linejoin: miter; stroke-linecap: square"/>
   </g>
   <g id="legend_2">
    <g id="patch_13">
     <path d="M 602.358895 62.17048 
L 714.19952 62.17048 
Q 716.19952 62.17048 716.19952 60.17048 
L 716.19952 31.81423 
Q 716.19952 29.81423 714.19952 29.81423 
L 602.358895 29.81423 
Q 600.358895 29.81423 600.358895 31.81423 
L 600.358895 60.17048 
Q 600.358895 62.17048 602.358895 62.17048 
z
" style="fill: #ffffff; opacity: 0.8; stroke: #cccccc; stroke-linejoin: miter"/>
    </g>
    <g id="line2d_72">
     <path d="M 604.358895 37.912667 
L 614.358895 37.912667 
L 624.358895 37.912667 
" style="fill: none; stroke-dasharray: 5.55,2.4; stroke-dashoffset: 0; stroke: #1f77b4; stroke-width: 1.5"/>
    </g>
    <g id="text_32">
     <!-- Gaussian kernel -->
     <g transform="translate(632.358895 41.412667) scale(0.1 -0.1)">
      <use xlink:href="#DejaVuSans-47"/>
      <use xlink:href="#DejaVuSans-61" transform="translate(77.490234 0)"/>
      <use xlink:href="#DejaVuSans-75" transform="translate(138.769531 0)"/>
      <use xlink:href="#DejaVuSans-73" transform="translate(202.148438 0)"/>
      <use xlink:href="#DejaVuSans-73" transform="translate(254.248047 0)"/>
      <use xlink:href="#DejaVuSans-69" transform="translate(306.347656 0)"/>
      <use xlink:href="#DejaVuSans-61" transform="translate(334.130859 0)"/>
      <use xlink:href="#DejaVuSans-6e" transform="translate(395.410156 0)"/>
      <use xlink:href="#DejaVuSans-20" transform="translate(458.789062 0)"/>
      <use xlink:href="#DejaVuSans-6b" transform="translate(490.576172 0)"/>
      <use xlink:href="#DejaVuSans-65" transform="translate(544.861328 0)"/>
      <use xlink:href="#DejaVuSans-72" transform="translate(606.384766 0)"/>
      <use xlink:href="#DejaVuSans-6e" transform="translate(645.748047 0)"/>
      <use xlink:href="#DejaVuSans-65" transform="translate(709.126953 0)"/>
      <use xlink:href="#DejaVuSans-6c" transform="translate(770.650391 0)"/>
     </g>
    </g>
    <g id="line2d_73">
     <path d="M 604.358895 52.590792 
L 614.358895 52.590792 
L 624.358895 52.590792 
" style="fill: none; stroke: #ff7f0e; stroke-width: 1.5; stroke-linecap: square"/>
    </g>
    <g id="text_33">
     <!-- effective kernel -->
     <g transform="translate(632.358895 56.090792) scale(0.1 -0.1)">
      <use xlink:href="#DejaVuSans-65"/>
      <use xlink:href="#DejaVuSans-66" transform="translate(61.523438 0)"/>
      <use xlink:href="#DejaVuSans-66" transform="translate(96.728516 0)"/>
      <use xlink:href="#DejaVuSans-65" transform="translate(131.933594 0)"/>
      <use xlink:href="#DejaVuSans-63" transform="translate(193.457031 0)"/>
      <use xlink:href="#DejaVuSans-74" transform="translate(248.4375 0)"/>
      <use xlink:href="#DejaVuSans-69" transform="translate(287.646484 0)"/>
      <use xlink:href="#DejaVuSans-76" transform="translate(315.429688 0)"/>
      <use xlink:href="#DejaVuSans-65" transform="translate(374.609375 0)"/>
      <use xlink:href="#DejaVuSans-20" transform="translate(436.132812 0)"/>
      <use xlink:href="#DejaVuSans-6b" transform="translate(467.919922 0)"/>
      <use xlink:href="#DejaVuSans-65" transform="translate(522.205078 0)"/>
      <use xlink:href="#DejaVuSans-72" transform="translate(583.728516 0)"/>
      <use xlink:href="#DejaVuSans-6e" transform="translate(623.091797 0)"/>
      <use xlink:href="#DejaVuSans-65" transform="translate(686.470703 0)"/>
      <use xlink:href="#DejaVuSans-6c" transform="translate(747.994141 0)"/>
     </g>
    </g>
   </g>
  </g>
  <g id="text_34">
   <!-- Comparison of Gaussian and effective TOF kernels (sigma=15.0 mm, Delta=20.0 mm) -->
   <g transform="translate(104.132573 16.318125) scale(0.12 -0.12)">
    <defs>
     <path id="DejaVuSans-43" d="M 4122 4306 
L 4122 3641 
Q 3803 3938 3442 4084 
Q 3081 4231 2675 4231 
Q 1875 4231 1450 3742 
Q 1025 3253 1025 2328 
Q 1025 1406 1450 917 
Q 1875 428 2675 428 
Q 3081 428 3442 575 
Q 3803 722 4122 1019 
L 4122 359 
Q 3791 134 3420 21 
Q 3050 -91 2638 -91 
Q 1578 -91 968 557 
Q 359 1206 359 2328 
Q 359 3453 968 4101 
Q 1578 4750 2638 4750 
Q 3056 4750 3426 4639 
Q 3797 4528 4122 4306 
z
" transform="scale(0.015625)"/>
     <path id="DejaVuSans-70" d="M 1159 525 
L 1159 -1331 
L 581 -1331 
L 581 3500 
L 1159 3500 
L 1159 2969 
Q 1341 3281 1617 3432 
Q 1894 3584 2278 3584 
Q 2916 3584 3314 3078 
Q 3713 2572 3713 1747 
Q 3713 922 3314 415 
Q 2916 -91 2278 -91 
Q 1894 -91 1617 61 
Q 1341 213 1159 525 
z
M 3116 1747 
Q 3116 2381 2855 2742 
Q 2594 3103 2138 3103 
Q 1681 3103 1420 2742 
Q 1159 2381 1159 1747 
Q 1159 1113 1420 752 
Q 1681 391 2138 391 
Q 2594 391 2855 752 
Q 3116 1113 3116 1747 
z
" transform="scale(0.015625)"/>
     <path id="DejaVuSans-67" d="M 2906 1791 
Q 2906 2416 2648 2759 
Q 2391 3103 1925 3103 
Q 1463 3103 1205 2759 
Q 947 2416 947 1791 
Q 947 1169 1205 825 
Q 1463 481 1925 481 
Q 2391 481 2648 825 
Q 2906 1169 2906 1791 
z
M 3481 434 
Q 3481 -459 3084 -895 
Q 2688 -1331 1869 -1331 
Q 1566 -1331 1297 -1286 
Q 1028 -1241 775 -1147 
L 775 -588 
Q 1028 -725 1275 -790 
Q 1522 -856 1778 -856 
Q 2344 -856 2625 -561 
Q 2906 -266 2906 331 
L 2906 616 
Q 2728 306 2450 153 
Q 2172 0 1784 0 
Q 1141 0 747 490 
Q 353 981 353 1791 
Q 353 2603 747 3093 
Q 1141 3584 1784 3584 
Q 2172 3584 2450 3431 
Q 2728 3278 2906 2969 
L 2906 3500 
L 3481 3500 
L 3481 434 
z
" transform="scale(0.015625)"/>
     <path id="DejaVuSans-3d" d="M 678 2906 
L 4684 2906 
L 4684 2381 
L 678 2381 
L 678 2906 
z
M 678 1631 
L 4684 1631 
L 4684 1100 
L 678 1100 
L 678 1631 
z
" transform="scale(0.015625)"/>
     <path id="DejaVuSans-2c" d="M 750 794 
L 1409 794 
L 1409 256 
L 897 -744 
L 494 -744 
L 750 256 
L 750 794 
z
" transform="scale(0.015625)"/>
     <path id="DejaVuSans-44" d="M 1259 4147 
L 1259 519 
L 2022 519 
Q 2988 519 3436 956 
Q 3884 1394 3884 2338 
Q 3884 3275 3436 3711 
Q 2988 4147 2022 4147 
L 1259 4147 
z
M 628 4666 
L 1925 4666 
Q 3281 4666 3915 4102 
Q 4550 3538 4550 2338 
Q 4550 1131 3912 565 
Q 3275 0 1925 0 
L 628 0 
L 628 4666 
z
" transform="scale(0.015625)"/>
    </defs>
    <use xlink:href="#DejaVuSans-43"/>
    <use xlink:href="#DejaVuSans-6f" transform="translate(69.824219 0)"/>
    <use xlink:href="#DejaVuSans-6d" transform="translate(131.005859 0)"/>
    <use xlink:href="#DejaVuSans-70" transform="translate(228.417969 0)"/>
    <use xlink:href="#DejaVuSans-61" transform="translate(291.894531 0)"/>
    <use xlink:href="#DejaVuSans-72" transform="translate(353.173828 0)"/>
    <use xlink:href="#DejaVuSans-69" transform="translate(394.287109 0)"/>
    <use xlink:href="#DejaVuSans-73" transform="translate(422.070312 0)"/>
    <use xlink:href="#DejaVuSans-6f" transform="translate(474.169922 0)"/>
    <use xlink:href="#DejaVuSans-6e" transform="translate(535.351562 0)"/>
    <use xlink:href="#DejaVuSans-20" transform="translate(598.730469 0)"/>
    <use xlink:href="#DejaVuSans-6f" transform="translate(630.517578 0)"/>
    <use xlink:href="#DejaVuSans-66" transform="translate(691.699219 0)"/>
    <use xlink:href="#DejaVuSans-20" transform="translate(726.904297 0)"/>
    <use xlink:href="#DejaVuSans-47" transform="translate(758.691406 0)"/>
    <use xlink:href="#DejaVuSans-61" transform="translate(836.181641 0)"/>
    <use xlink:href="#DejaVuSans-75" transform="translate(897.460938 0)"/>
    <use xlink:href="#DejaVuSans-73" transform="translate(960.839844 0)"/>
    <use xlink:href="#DejaVuSans-73" transform="translate(1012.939453 0)"/>
    <use xlink:href="#DejaVuSans-69" transform="translate(1065.039062 0)"/>
    <use xlink:href="#DejaVuSans-61" transform="translate(1092.822266 0)"/>
    <use xlink:href="#DejaVuSans-6e" transform="translate(1154.101562 0)"/>
    <use xlink:href="#DejaVuSans-20" transform="translate(1217.480469 0)"/>
    <use xlink:href="#DejaVuSans-61" transform="translate(1249.267578 0)"/>
    <use xlink:href="#DejaVuSans-6e" transform="translate(1310.546875 0)"/>
    <use xlink:href="#DejaVuSans-64" transform="translate(1373.925781 0)"/>
    <use xlink:href="#DejaVuSans-20" transform="translate(1437.402344 0)"/>
    <use xlink:href="#DejaVuSans-65" transform="translate(1469.189453 0)"/>
    <use xlink:href="#DejaVuSans-66" transform="translate(1530.712891 0)"/>
    <use xlink:href="#DejaVuSans-66" transform="translate(1565.917969 0)"/>
    <use xlink:href="#DejaVuSans-65" transform="translate(1601.123047 0)"/>
    <use xlink:href="#DejaVuSans-63" transform="translate(1662.646484 0)"/>
    <use xlink:href="#DejaVuSans-74" transform="translate(1717.626953 0)"/>
    <use xlink:href="#DejaVuSans-69" transform="translate(1756.835938 0)"/>
    <use xlink:href="#DejaVuSans-76" transform="translate(1784.619141 0)"/>
    <use xlink:href="#DejaVuSans-65" transform="translate(1843.798828 0)"/>
    <use xlink:href="#DejaVuSans-20" transform="translate(1905.322266 0)"/>
    <use xlink:href="#DejaVuSans-54" transform="translate(1937.109375 0)"/>
    <use xlink:href="#DejaVuSans-4f" transform="translate(1998.193359 0)"/>
    <use xlink:href="#DejaVuSans-46" transform="translate(2076.904297 0)"/>
    <use xlink:href="#DejaVuSans-20" transform="translate(2134.423828 0)"/>
    <use xlink:href="#DejaVuSans-6b" transform="translate(2166.210938 0)"/>
    <use xlink:href="#DejaVuSans-65" transform="translate(2220.496094 0)"/>
    <use xlink:href="#DejaVuSans-72" transform="translate(2282.019531 0)"/>
    <use xlink:href="#DejaVuSans-6e" transform="translate(2321.382812 0)"/>
    <use xlink:href="#DejaVuSans-65" transform="translate(2384.761719 0)"/>
    <use xlink:href="#DejaVuSans-6c" transform="translate(2446.285156 0)"/>
    <use xlink:href="#DejaVuSans-73" transform="translate(2474.068359 0)"/>
    <use xlink:href="#DejaVuSans-20" transform="translate(2526.167969 0)"/>
    <use xlink:href="#DejaVuSans-28" transform="translate(2557.955078 0)"/>
    <use xlink:href="#DejaVuSans-73" transform="translate(2596.96875 0)"/>
    <use xlink:href="#DejaVuSans-69" transform="translate(2649.068359 0)"/>
    <use xlink:href="#DejaVuSans-67" transform="translate(2676.851562 0)"/>
    <use xlink:href="#DejaVuSans-6d" transform="translate(2740.328125 0)"/>
    <use xlink:href="#DejaVuSans-61" transform="translate(2837.740234 0)"/>
    <use xlink:href="#DejaVuSans-3d" transform="translate(2899.019531 0)"/>
    <use xlink:href="#DejaVuSans-31" transform="translate(2982.808594 0)"/>
    <use xlink:href="#DejaVuSans-35" transform="translate(3046.431641 0)"/>
    <use xlink:href="#DejaVuSans-2e" transform="translate(3110.054688 0)"/>
    <use xlink:href="#DejaVuSans-30" transform="translate(3141.841797 0)"/>
    <use xlink:href="#DejaVuSans-20" transform="translate(3205.464844 0)"/>
    <use xlink:href="#DejaVuSans-6d" transform="translate(3237.251953 0)"/>
    <use xlink:href="#DejaVuSans-6d" transform="translate(3334.664062 0)"/>
    <use xlink:href="#DejaVuSans-2c" transform="translate(3432.076172 0)"/>
    <use xlink:href="#DejaVuSans-20" transform="translate(3463.863281 0)"/>
    <use xlink:href="#DejaVuSans-44" transform="translate(3495.650391 0)"/>
    <use xlink:href="#DejaVuSans-65" transform="translate(3572.652344 0)"/>
    <use xlink:href="#DejaVuSans-6c" transform="translate(3634.175781 0)"/>
    <use xlink:href="#DejaVuSans-74" transform="translate(3661.958984 0)"/>
    <use xlink:href="#DejaVuSans-61" transform="translate(3701.167969 0)"/>
    <use xlink:href="#DejaVuSans-3d" transform="translate(3762.447266 0)"/>
    <use xlink:href="#DejaVuSans-32" transform="translate(3846.236328 0)"/>
    <use xlink:href="#DejaVuSans-30" transform="translate(3909.859375 0)"/>
    <use xlink:href="#DejaVuSans-2e" transform="translate(3973.482422 0)"/>
    <use xlink:href="#DejaVuSans-30" transform="translate(4005.269531 0)"/>
    <use xlink:href="#DejaVuSans-20" transform="translate(4068.892578 0)"/>
    <use xlink:href="#DejaVuSans-6d" transform="translate(4100.679688 0)"/>
    <use xlink:href="#DejaVuSans-6d" transform="translate(4198.091797 0)"/>
    <use xlink:href="#DejaVuSans-29" transform="translate(4295.503906 0)"/>
   </g>
  </g>
 </g>
 <defs>
  <clipPath id="p99d745d857">
   <rect x="56.50625" y="24.81423" width="304.09351" height="305.750915"/>
  </clipPath>
  <clipPath id="pf6dcbd5e53">
   <rect x="417.10601" y="24.81423" width="304.09351" height="305.750915"/>
  </clipPath>
 </defs>
</svg>
